<?xml version="1.0" standalone="no"?>
<!DOCTYPE svg PUBLIC "-//W3C//DTD SVG 20010904//EN"
 "http://www.w3.org/TR/2001/REC-SVG-20010904/DTD/svg10.dtd">
<svg version="1.0" xmlns="http://www.w3.org/2000/svg"
 width="1728.000000pt" height="1080.000000pt" viewBox="0 0 1728.000000 1080.000000"
 preserveAspectRatio="xMidYMid meet">

<g transform="translate(0.000000,1080.000000) scale(0.100000,-0.100000)"
fill="#000000" stroke="none">
<path d="M6629 9253 c-15 -10 -38 -26 -52 -36 -18 -13 -52 -21 -108 -24 -88
-6 -119 -23 -119 -64 0 -41 130 -68 165 -33 9 10 35 17 68 18 85 2 139 59 125
133 -4 25 -46 28 -79 6z m51 -29 c0 -26 -19 -53 -50 -69 -37 -19 -50 -19 -50
0 0 8 4 15 9 15 5 0 12 8 15 18 5 16 51 51 69 52 4 0 7 -7 7 -16z m-185 -89
c0 -24 -46 -32 -89 -15 -24 9 -26 13 -15 26 8 10 26 14 58 12 38 -3 46 -6 46
-23z"/>
<path d="M8557 8412 c-15 -15 -27 -33 -27 -39 0 -8 -8 -8 -29 0 -40 15 -61 4
-61 -33 l0 -30 -41 17 c-40 16 -43 15 -55 -2 -20 -27 -18 -74 4 -81 9 -3 24
-9 33 -14 9 -5 32 -12 52 -15 32 -6 36 -5 39 17 2 17 10 24 31 26 15 2 27 8
27 13 0 5 16 9 35 9 22 0 38 6 41 15 4 8 12 15 20 15 10 0 14 13 14 46 0 85
-34 108 -83 56z m53 -39 c0 -29 -25 -63 -47 -63 -19 0 -8 58 16 81 21 21 31
15 31 -18z m-199 -85 c39 -11 48 -21 29 -33 -15 -9 -80 17 -80 32 0 16 3 16
51 1z"/>
<path d="M6876 8322 c-3 -6 -2 -13 4 -17 6 -4 8 -11 5 -16 -4 -5 2 -12 12 -16
10 -4 32 -20 48 -36 17 -16 25 -27 19 -23 -7 3 -15 -1 -18 -10 -8 -21 -5 -25
30 -27 26 -2 29 -6 32 -42 2 -26 -1 -35 -6 -27 -5 7 -7 25 -4 40 3 15 1 23 -4
19 -14 -13 -13 -41 2 -65 25 -37 10 -91 -38 -140 -22 -23 -46 -42 -53 -42 -7
0 -15 -7 -19 -15 -3 -8 -9 -14 -13 -13 -51 13 -155 -73 -168 -138 -3 -19 -12
-34 -19 -34 -19 0 -83 -73 -100 -115 -9 -20 -18 -52 -22 -73 -4 -20 -11 -42
-15 -48 -5 -6 -10 -42 -10 -80 -1 -56 -4 -72 -20 -84 -13 -10 -24 -40 -33 -89
-9 -46 -20 -78 -30 -83 -10 -6 -16 -22 -16 -44 0 -19 -7 -51 -16 -72 -10 -24
-15 -61 -14 -107 2 -38 2 -79 2 -90 0 -20 -60 -127 -75 -133 -4 -2 -5 -8 -2
-12 3 -5 -3 -15 -12 -22 -10 -7 -19 -19 -21 -27 -2 -8 -10 -20 -19 -26 -10 -8
-16 -25 -15 -48 1 -23 -4 -37 -13 -41 -8 -3 -15 -17 -15 -30 0 -14 -8 -30 -17
-35 -10 -6 -13 -11 -8 -11 6 0 11 -41 13 -102 3 -126 5 -133 42 -148 16 -7 28
-16 25 -20 -3 -4 11 -11 30 -14 32 -6 50 -26 24 -26 -6 0 -4 -7 5 -15 19 -19
32 -20 17 -1 -8 10 -9 16 -1 21 5 3 10 1 10 -5 0 -6 6 -10 13 -9 25 5 98 -22
91 -33 -4 -7 -3 -8 4 -4 28 17 54 15 59 -4 6 -21 33 -28 33 -9 0 5 -4 7 -10 4
-5 -3 -10 -1 -10 4 0 17 11 13 36 -14 27 -29 44 -32 43 -7 0 9 -3 12 -5 5 -7
-16 -34 -5 -34 14 0 9 5 11 12 6 14 -8 16 -8 93 -12 28 -2 42 -5 33 -8 -10 -2
-18 -9 -18 -15 0 -6 12 -3 26 7 22 14 28 15 35 4 5 -8 3 -17 -4 -21 -9 -6 -8
-8 2 -8 8 0 19 -7 25 -16 10 -13 12 -13 12 5 0 11 -4 17 -8 15 -4 -3 -8 3 -8
12 0 16 1 16 19 0 16 -15 19 -15 24 -1 7 16 47 21 47 6 0 -5 -10 -7 -22 -4
-13 3 -20 2 -15 -2 4 -5 26 -10 49 -11 29 -1 48 -9 59 -23 13 -16 18 -18 22
-6 4 8 -1 16 -11 19 -9 3 -5 4 11 2 15 -2 27 1 27 5 0 5 -5 9 -11 9 -5 0 -7 5
-3 11 3 6 14 -2 25 -21 11 -17 23 -28 28 -25 5 3 12 1 16 -5 3 -5 0 -10 -7
-10 -8 0 -6 -5 5 -11 10 -6 25 -8 35 -6 12 3 10 5 -6 6 -13 0 -20 5 -17 11 4
6 11 7 17 4 7 -4 8 -2 4 4 -13 22 11 12 28 -10 9 -13 14 -18 11 -11 -5 12 19
12 31 0 14 -13 36 -7 30 8 -3 8 -1 15 3 15 5 0 7 8 4 18 -2 10 3 25 13 33 10
8 15 10 12 4 -3 -5 1 -16 9 -24 13 -12 14 -11 9 10 -6 21 -5 22 6 8 7 -9 21
-16 31 -16 12 0 14 4 7 11 -13 13 -13 26 1 26 5 0 8 -4 5 -9 -3 -5 3 -11 15
-14 16 -4 18 -3 9 8 -15 18 11 14 36 -5 17 -14 18 -13 6 2 -12 15 -10 16 15
13 15 -2 43 -4 61 -4 23 -1 32 -6 33 -18 0 -14 2 -15 6 -3 9 21 33 44 50 46 9
2 12 -3 9 -12 -3 -8 -1 -14 5 -14 6 0 8 -4 4 -9 -3 -5 0 -13 6 -17 8 -4 9 -3
5 4 -4 7 -3 12 2 12 12 0 11 34 -2 42 -6 4 -1 6 11 6 14 -2 20 -8 18 -19 -2
-10 3 -23 11 -30 12 -10 13 -9 8 5 -7 18 3 21 26 6 11 -7 11 -10 2 -10 -7 0
-10 -5 -7 -11 5 -6 12 -4 22 8 14 17 14 17 9 -1 -6 -16 -4 -17 9 -6 17 15 10
32 -12 28 -9 -2 -18 4 -20 12 -3 11 -2 12 5 2 6 -9 12 -6 20 13 7 14 16 24 21
21 5 -4 11 -1 13 4 2 6 20 13 41 16 25 3 36 1 32 -6 -3 -5 -20 -10 -36 -10
-20 0 -28 -4 -23 -12 4 -6 3 -8 -3 -5 -6 4 -19 -1 -29 -9 -16 -13 -16 -15 -2
-10 12 3 15 1 11 -10 -3 -8 1 -14 8 -14 12 0 12 -2 0 -9 -9 -6 -10 -10 -2 -16
9 -5 9 -11 -1 -23 -11 -13 -11 -14 8 -4 12 6 24 9 28 7 3 -3 4 -2 1 2 -3 3 0
12 6 19 7 8 7 14 -1 19 -6 4 -9 1 -8 -6 2 -6 -3 -14 -10 -16 -7 -3 -10 1 -8 9
2 7 7 26 11 43 l7 30 13 -25 c12 -20 14 -21 15 -7 0 11 9 21 20 24 11 3 20 11
20 17 0 7 6 13 13 14 6 0 23 3 36 6 17 4 24 0 28 -15 5 -16 8 -18 14 -7 7 10
9 9 9 -4 0 -10 5 -18 11 -18 5 0 7 -5 3 -12 -5 -7 -3 -8 5 -4 7 5 10 10 7 13
-7 7 17 32 26 27 4 -3 13 4 20 16 17 27 28 25 55 -7 16 -18 23 -22 23 -10 0 8
-6 18 -12 20 -10 4 -10 6 -1 6 7 1 10 8 7 16 -7 17 21 21 31 5 4 -6 12 -7 18
-4 8 4 7 2 -1 -7 -11 -12 -14 -12 -22 1 -13 21 -19 9 -9 -17 5 -13 16 -23 26
-22 16 0 16 1 -2 9 -14 6 -16 9 -5 10 8 2 18 2 23 1 4 0 7 6 7 14 0 16 12 20
23 8 4 -3 0 -15 -10 -25 -15 -17 -15 -18 5 -18 14 0 22 6 23 18 0 14 2 14 9
-3 8 -19 9 -19 9 -1 1 10 -7 25 -16 33 -10 8 -12 12 -5 8 7 -4 12 0 12 9 0 10
6 13 15 10 9 -4 15 0 15 7 0 11 3 11 10 -1 8 -12 10 -12 10 -1 0 8 7 11 19 8
10 -2 27 1 37 7 10 6 33 12 49 12 45 3 45 3 45 15 0 8 -5 8 -15 -1 -10 -9 -15
-9 -15 -1 0 13 -1 12 61 14 38 1 46 4 41 16 -5 13 -3 14 10 3 13 -10 16 -9 21
7 3 14 0 18 -12 15 -9 -2 -4 2 12 9 15 7 24 17 20 22 -5 5 1 3 11 -5 13 -10
17 -10 12 -2 -4 7 -2 12 4 12 7 0 9 7 5 18 -5 13 -4 14 6 5 10 -10 15 -8 24
10 6 12 18 21 27 21 10 -1 14 4 11 12 -3 9 2 14 16 14 12 0 21 3 22 8 4 43 19
81 19 49 0 -9 5 -17 11 -17 5 0 7 5 4 10 -3 6 0 10 7 10 9 0 9 3 -2 10 -8 5
-11 10 -6 10 5 0 2 8 -5 17 -8 10 -9 14 -2 10 6 -4 14 -3 17 2 4 5 17 8 29 5
25 -4 30 16 13 46 -7 12 -6 13 5 3 21 -20 39 -15 36 9 -1 15 4 23 18 26 24 5
46 32 40 50 -2 6 -1 12 4 12 8 0 24 38 22 53 -1 4 3 7 9 7 5 0 8 6 6 13 -1 6
-1 9 1 5 8 -13 33 4 33 22 0 10 9 21 19 25 20 6 31 33 31 74 0 13 8 30 18 38
11 10 12 12 2 8 -12 -5 -12 -4 1 7 10 8 15 26 13 46 -1 20 1 30 8 26 5 -4 5 4
-2 16 -7 13 -10 37 -7 55 6 35 -6 68 -16 44 -3 -8 -6 -9 -6 -3 -1 6 6 17 15
24 12 11 15 11 12 0 -2 -7 3 -15 10 -17 11 -4 12 -1 2 16 -6 12 -15 19 -20 16
-5 -3 -11 -1 -15 5 -4 6 -11 7 -17 4 -7 -4 -8 -2 -4 5 4 6 12 9 17 6 5 -4 9
-2 9 4 0 5 -4 13 -10 16 -13 8 -13 25 1 25 5 0 7 -6 3 -12 -5 -9 -2 -8 9 1 16
12 20 38 6 29 -3 -2 -14 4 -24 12 -11 8 -16 10 -12 3 4 -7 0 -16 -9 -21 -11
-6 -13 -11 -5 -16 6 -4 11 -12 11 -18 0 -17 -57 41 -63 64 -3 11 0 21 9 25 8
3 14 9 14 15 0 5 -4 6 -10 3 -5 -3 -20 -1 -32 6 -22 11 -22 11 -7 -7 18 -22
19 -46 2 -51 -7 -3 -9 4 -5 19 5 20 3 21 -10 10 -13 -10 -18 -10 -24 -1 -4 8
-3 9 4 5 17 -10 15 3 -4 21 -14 15 -15 14 -12 -3 2 -11 -3 -19 -12 -19 -21 -2
-72 24 -66 33 8 13 -62 6 -79 -8 -18 -15 -20 0 -2 19 10 11 10 13 0 7 -8 -4
-13 -1 -13 8 0 8 -7 22 -16 30 -10 10 -11 16 -3 16 8 0 8 4 -1 15 -11 13 -10
14 2 10 9 -4 15 0 15 8 0 8 -7 14 -16 13 -9 -1 -15 8 -16 21 0 16 -11 29 -34
40 -34 17 -53 63 -27 63 6 0 2 6 -9 13 -20 12 -26 13 -46 16 -6 0 -9 8 -5 16
5 14 -26 40 -36 29 -3 -3 -18 10 -33 28 -15 18 -35 32 -44 31 -10 -2 -24 14
-38 43 -22 44 -22 45 -3 39 14 -5 18 -2 15 7 -3 8 -17 15 -32 16 -28 2 -76 50
-66 65 3 6 1 7 -5 3 -17 -10 -15 10 3 28 8 8 11 17 6 20 -5 3 -14 -8 -21 -24
-7 -17 -17 -30 -22 -30 -5 0 -7 4 -4 9 7 11 -20 23 -61 26 -31 2 -82 46 -62
53 5 2 9 8 9 14 0 6 -7 8 -15 4 -8 -3 -14 -2 -12 2 1 4 -1 7 -5 7 -9 0 -43 46
-43 58 0 5 -11 15 -25 22 -14 8 -19 14 -11 15 8 0 12 3 9 6 -4 3 -15 1 -26 -5
-15 -8 -23 -7 -31 3 -6 7 -8 15 -5 19 3 3 -4 3 -17 0 -22 -6 -22 -7 -3 -14 21
-8 20 -8 -15 -15 -19 -3 -22 -1 -17 13 6 17 5 17 -8 0 -9 -12 -16 -14 -21 -8
-3 6 -2 11 3 11 5 0 12 9 15 21 4 16 3 18 -8 9 -10 -9 -15 -6 -20 10 -4 12
-14 19 -23 18 -9 -2 -16 2 -15 8 3 14 -34 6 -44 -9 -3 -6 -1 -7 5 -3 7 4 12 2
12 -5 0 -7 3 -10 6 -6 4 3 13 -1 21 -9 8 -8 18 -12 22 -10 4 3 8 -1 8 -9 0
-11 -4 -11 -23 1 -12 9 -33 16 -46 18 -14 1 -35 10 -48 19 -14 9 -38 17 -55
17 -17 0 -37 6 -44 13 -11 10 -13 10 -7 0 4 -7 3 -13 -2 -13 -6 0 -12 6 -15
14 -7 17 -28 15 -53 -4 -13 -11 -15 -11 -10 -2 5 9 3 13 -5 11 -27 -3 -40 1
-34 11 3 6 2 10 -3 10 -6 0 -13 -7 -16 -16 -6 -15 -8 -15 -26 1 -11 10 -17 22
-14 27 4 6 -3 5 -14 -1 -15 -8 -23 -7 -31 3 -6 7 -7 16 -3 20 4 4 3 7 -3 6
-26 -6 -43 2 -55 25 -7 14 -15 23 -18 20 -3 -2 1 -11 8 -20 10 -12 10 -15 -3
-15 -9 0 -19 5 -22 10 -4 6 -10 8 -15 5 -5 -3 -13 3 -19 12 -6 10 -11 14 -11
9 0 -5 -8 -2 -17 5 -15 12 -16 12 -9 -1 6 -10 3 -9 -10 3 -15 14 -16 19 -5 26
9 6 10 11 2 15 -6 4 -11 3 -11 -1 0 -5 -10 -14 -22 -22 -21 -13 -22 -13 -9 2
7 10 12 17 10 17 -173 11 -247 11 -253 2z m79 -33 c11 -17 -1 -21 -15 -4 -8 9
-8 15 -2 15 6 0 14 -5 17 -11z m55 0 c0 -4 -9 -7 -19 -6 -11 0 -18 4 -16 7 6
9 35 8 35 -1z m21 -36 c13 -16 12 -17 -3 -4 -10 7 -18 15 -18 17 0 8 8 3 21
-13z m29 -57 c-12 -12 -30 2 -24 19 5 11 9 12 19 2 7 -7 10 -16 5 -21z m180 4
c0 -5 -2 -10 -4 -10 -3 0 -8 5 -11 10 -3 6 -1 10 4 10 6 0 11 -4 11 -10z m-90
-20 c-13 -23 -27 -26 -27 -5 0 8 4 12 8 9 4 -2 10 0 14 6 11 19 16 10 5 -10z
m80 -5 c0 -2 -5 -7 -12 -11 -7 -5 -8 -3 -3 6 6 10 3 12 -13 8 -15 -4 -19 -2
-15 8 4 10 10 11 24 3 10 -5 19 -12 19 -14z m-165 -24 c-6 -5 -25 10 -25 20 0
5 6 4 14 -3 8 -7 12 -15 11 -17z m96 -9 c-6 -2 -8 -9 -5 -14 4 -7 2 -8 -4 -4
-16 9 -15 29 1 45 10 10 13 9 16 -6 2 -9 -2 -19 -8 -21z m210 -24 c-11 -11
-13 -10 -7 0 4 7 2 21 -5 30 -12 15 -11 15 6 0 16 -15 17 -20 6 -30z m-146 22
c4 -6 -4 -9 -17 -7 -15 1 -22 -3 -20 -11 1 -8 -2 -11 -8 -7 -8 5 -7 11 1 21
13 16 35 18 44 4z m-125 -12 c0 -6 -3 -8 -7 -5 -9 10 -34 -14 -26 -26 3 -5 1
-7 -5 -3 -5 3 -13 0 -16 -6 -3 -7 -4 -4 -3 7 3 29 57 60 57 33z m438 -19 c-3
-12 234 -100 255 -95 7 1 8 1 4 -2 -5 -2 2 -16 15 -29 16 -18 19 -27 10 -30
-6 -3 -10 -8 -8 -12 9 -13 -103 5 -121 20 -10 9 -34 22 -53 29 -19 8 -53 29
-76 47 -23 18 -51 33 -63 33 -27 0 -28 20 -1 27 11 3 20 9 20 14 0 5 5 9 10 9
6 0 9 -5 8 -11z m-428 -31 c0 -4 -3 -8 -7 -9 -5 0 -21 -2 -38 -4 -29 -4 -30
-4 -7 9 27 14 52 17 52 4z m46 -23 c1 -8 -2 -15 -8 -15 -6 0 -8 6 -5 14 3 7 1
19 -4 25 -6 8 -5 8 3 1 6 -5 13 -17 14 -25z m191 18 c4 -12 -14 -12 -33 -1 -6
4 -18 -2 -27 -13 -9 -10 -22 -19 -27 -19 -6 0 1 11 16 24 29 24 65 29 71 9z
m-283 -39 c14 -5 14 -8 1 -21 -9 -8 -12 -19 -9 -25 4 -6 3 -8 -2 -5 -6 3 -16
2 -24 -4 -13 -7 -13 -9 0 -10 8 -1 20 -1 25 0 6 1 1 -6 -9 -14 -24 -18 -32
-19 -42 -3 -5 7 -3 8 6 3 10 -6 12 -4 7 8 -3 9 -1 20 6 24 7 5 19 17 27 27 14
18 13 19 -3 13 -11 -4 -16 -3 -12 3 7 12 8 12 29 4z m281 -4 c-3 -5 -12 -10
-18 -10 -7 0 -6 4 3 10 19 12 23 12 15 0z m-31 -15 c2 -7 0 -18 -6 -26 -8 -11
-9 -10 -4 4 6 20 -4 22 -24 5 -12 -11 -12 -10 -2 3 6 9 10 18 7 21 -3 2 2 5
10 5 8 0 16 -6 19 -12z m533 9 c-3 -3 -12 -4 -19 -1 -8 3 -5 6 6 6 11 1 17 -2
13 -5z m-617 -10 c0 -8 -19 -13 -24 -6 -3 5 1 9 9 9 8 0 15 -2 15 -3z m-102
-30 c0 -17 -3 -22 -8 -13 -5 6 -6 18 -3 26 8 19 11 16 11 -13z m717 16 c-3 -5
-12 -10 -18 -10 -7 0 -6 4 3 10 19 12 23 12 15 0z m-250 -9 c3 -5 1 -12 -5
-16 -5 -3 -10 1 -10 9 0 18 6 21 15 7z m-365 -9 c0 -5 -12 -14 -27 -21 -28
-13 -28 -13 -9 8 20 22 36 27 36 13z m114 0 c3 -5 -1 -9 -9 -9 -8 0 -12 4 -9
9 3 4 7 8 9 8 2 0 6 -4 9 -8z m-90 -18 c3 -8 2 -12 -4 -9 -6 3 -10 10 -10 16
0 14 7 11 14 -7z m158 9 c-6 -2 -9 -10 -6 -15 4 -7 2 -8 -5 -4 -13 9 -5 26 12
25 9 0 8 -2 -1 -6z m-297 -41 c-4 -12 -2 -12 8 -4 8 7 17 9 20 5 4 -3 7 0 7 8
0 11 2 11 10 -1 14 -21 13 -24 -17 -54 -20 -21 -22 -25 -7 -20 10 4 30 19 43
33 14 14 29 25 33 24 4 -2 8 5 8 15 0 14 2 15 10 2 15 -23 12 -29 -10 -25 -11
2 -20 -2 -20 -8 0 -14 -28 -40 -53 -50 -9 -3 -17 -12 -17 -19 0 -9 3 -9 12 0
15 15 38 16 38 1 0 -5 -5 -7 -10 -4 -6 3 -13 -1 -16 -10 -4 -10 -10 -12 -18
-6 -7 6 -18 4 -31 -6 -20 -15 -20 -15 3 -10 19 5 21 3 11 -9 -6 -8 -17 -14
-23 -13 -33 4 -39 -1 -25 -18 7 -10 9 -15 5 -11 -5 4 -15 0 -23 -10 -13 -15
-13 -15 -7 7 5 21 3 23 -14 19 -14 -4 -19 -2 -16 7 3 8 14 11 27 7 22 -5 22
-5 3 16 -10 12 -16 28 -13 35 3 8 0 20 -6 26 -8 8 -8 11 0 11 6 0 13 -3 16 -7
2 -5 2 -3 1 4 -2 6 2 14 9 17 7 3 6 5 -3 5 -9 1 -21 -4 -27 -10 -6 -6 -16 -8
-22 -5 -14 9 -14 26 0 26 5 0 7 -6 3 -12 -4 -7 -3 -9 1 -5 15 13 13 34 -2 33
-9 0 -18 5 -21 13 -3 10 0 11 9 5 20 -12 39 -14 39 -3 0 6 4 8 9 4 5 -3 12 -1
16 4 9 16 34 1 28 -17 -6 -13 -7 -13 -12 -1 -5 12 -9 11 -25 -5 -16 -16 -16
-18 -3 -13 10 4 17 2 17 -5 0 -6 3 -8 6 -5 4 3 15 2 25 -3 12 -7 20 -7 24 0 3
5 -1 10 -10 10 -12 0 -14 4 -6 18 7 13 6 23 -2 31 -9 10 -8 11 6 5 11 -4 16
-13 12 -22z m265 12 c0 -2 -7 -4 -15 -4 -8 0 -15 4 -15 10 0 5 7 7 15 4 8 -4
15 -8 15 -10z m550 -3 c19 -37 12 -51 -25 -51 -33 0 -35 2 -35 35 0 31 3 35
25 35 14 0 29 -8 35 -19z m-644 -23 c4 -7 3 -8 -4 -4 -7 4 -12 3 -12 -3 0 -5
6 -12 13 -15 6 -4 2 -4 -10 -2 -13 2 -23 0 -23 -5 0 -4 -7 -5 -17 -2 -10 4
-14 2 -10 -4 4 -6 1 -14 -5 -17 -7 -3 -1 -4 15 -2 15 2 27 -1 27 -5 0 -5 -4
-10 -10 -10 -5 -1 -15 -2 -20 -3 -6 0 -15 -7 -19 -15 -6 -9 -11 -10 -15 -2 -4
6 -2 11 4 11 7 0 9 8 5 20 -8 24 11 51 29 44 8 -3 16 2 19 10 7 19 23 21 33 4z
m-303 -24 c-3 -8 -9 -14 -15 -14 -5 0 -6 6 -2 13 5 8 3 8 -9 -2 -9 -7 -13 -18
-9 -25 4 -6 7 -20 7 -31 0 -12 9 -22 25 -26 14 -4 21 -8 15 -8 -5 -1 -3 -6 5
-11 12 -8 11 -10 -7 -10 -12 0 -23 -3 -26 -7 -2 -5 -2 -2 -1 5 4 16 -6 15 -25
-2 -9 -7 -31 -16 -50 -20 -33 -6 -33 -5 -18 12 10 10 17 22 17 27 0 4 -10 -5
-22 -21 -12 -16 -26 -32 -31 -35 -5 -3 -8 -10 -7 -15 1 -5 -4 -10 -11 -13 -7
-2 -9 1 -4 9 5 9 4 11 -4 6 -6 -4 -9 -16 -6 -26 3 -10 0 -22 -6 -26 -9 -5 -10
-2 -6 9 3 9 2 19 -4 22 -5 4 -7 10 -5 14 3 4 -5 13 -17 20 -18 11 -20 11 -9 0
17 -18 15 -30 -3 -23 -17 7 -20 59 -4 69 6 4 13 -2 16 -14 3 -12 10 -21 15
-21 5 0 6 5 3 10 -3 6 -1 10 5 10 6 0 13 -7 16 -15 8 -21 26 -19 22 2 -2 10 2
18 7 18 20 1 34 16 29 30 -3 8 -9 13 -12 12 -4 -1 -8 1 -9 6 -2 4 -1 6 0 5 2
-2 11 3 20 11 14 11 20 11 32 1 8 -7 15 -9 15 -5 0 4 -8 14 -17 21 -16 12 -15
13 12 9 17 -2 24 -2 18 1 -17 8 -16 24 1 24 7 0 19 6 26 14 14 18 41 10 33
-10z m347 22 c0 -3 -4 -8 -10 -11 -5 -3 -10 -1 -10 4 0 6 5 11 10 11 6 0 10
-2 10 -4z m470 -6 c0 -5 -5 -10 -11 -10 -5 0 -7 5 -4 10 3 6 8 10 11 10 2 0 4
-4 4 -10z m60 -10 c0 -5 -2 -10 -4 -10 -3 0 -8 5 -11 10 -3 6 -1 10 4 10 6 0
11 -4 11 -10z m-300 -10 c0 -5 -2 -10 -4 -10 -3 0 -8 5 -11 10 -3 6 -1 10 4
10 6 0 11 -4 11 -10z m-230 -6 c0 -8 -19 -13 -24 -6 -3 5 1 9 9 9 8 0 15 -2
15 -3z m815 -4 c3 -5 1 -10 -4 -10 -6 0 -11 5 -11 10 0 6 2 10 4 10 3 0 8 -4
11 -10z m-756 -23 c0 -9 -2 -8 -6 1 -2 6 -10 9 -15 6 -7 -4 -8 -2 -4 5 9 13
26 5 25 -12z m-378 4 c7 -1 18 -61 12 -61 -3 0 -11 7 -19 15 -8 8 -22 12 -32
9 -10 -4 -13 -3 -6 3 6 4 10 15 9 24 -2 11 3 16 14 14 9 -2 19 -4 22 -4z
m1064 -1 c3 -5 1 -10 -4 -10 -6 0 -11 5 -11 10 0 6 2 10 4 10 3 0 8 -4 11 -10z
m-1244 -24 c-10 -11 -8 -17 9 -29 13 -9 17 -17 11 -22 -6 -3 -11 -2 -11 4 0 7
-9 7 -25 -1 -19 -9 -28 -9 -37 0 -9 9 -9 12 1 12 7 0 9 5 5 12 -5 8 -2 9 9 5
12 -5 17 -1 17 12 0 11 6 21 13 24 18 6 21 -1 8 -17z m419 -12 c0 -8 -58 -33
-64 -27 -3 4 -6 1 -6 -5 0 -15 6 -15 30 -2 13 7 19 6 23 -4 8 -19 1 -24 -29
-18 -21 4 -54 40 -39 43 4 1 26 4 56 8 5 0 7 5 4 11 -3 6 1 7 9 4 9 -3 16 -8
16 -10z m195 -2 c-3 -3 -11 0 -18 7 -9 10 -8 11 6 5 10 -3 15 -9 12 -12z m412
-4 c2 -17 0 -19 -7 -8 -5 8 -6 18 -4 22 8 12 10 10 11 -14z m-697 -46 c0 -13
-2 -14 -9 -4 -7 11 -9 11 -14 -1 -3 -8 0 -21 6 -28 8 -8 5 -8 -7 1 -18 14 -19
13 -13 -2 4 -12 2 -15 -8 -12 -8 3 -11 12 -8 20 3 8 -1 14 -8 14 -8 0 0 8 16
19 33 20 45 18 45 -7z m117 21 c-4 -3 5 -21 19 -40 14 -18 21 -33 17 -33 -5 0
-17 14 -27 30 -9 17 -22 28 -27 25 -5 -4 -9 -2 -9 4 0 5 6 12 13 14 18 8 21 8
14 0z m403 -27 c0 -2 -8 -10 -17 -17 -16 -13 -17 -12 -4 4 13 16 21 21 21 13z
m-475 -16 c-3 -5 -12 -7 -20 -3 -21 7 -19 13 6 13 11 0 18 -4 14 -10z m32 -13
c0 -8 -6 -14 -13 -14 -7 0 -10 6 -7 14 3 7 8 13 12 13 4 0 8 -6 8 -13z m-337
-7 c0 -5 -5 -10 -11 -10 -8 0 -8 -5 1 -15 7 -8 9 -15 5 -15 -4 0 -2 -7 5 -14
10 -13 7 -14 -17 -10 -15 3 -30 10 -31 15 -3 6 -10 5 -19 -3 -13 -10 -15 -9
-12 7 5 24 39 33 39 11 0 -9 5 -16 11 -16 6 0 9 7 5 15 -3 8 -3 22 0 30 7 17
24 20 24 5z m73 -22 c-2 -5 -10 -8 -18 -8 -8 0 -16 3 -18 8 -3 4 5 7 18 7 13
0 21 -3 18 -7z m1164 -4 c-3 -3 -12 -4 -19 -1 -8 3 -5 6 6 6 11 1 17 -2 13 -5z
m-1418 -36 c1 7 5 11 10 8 5 -4 11 -1 13 6 3 7 7 5 11 -6 4 -9 3 -15 -2 -12
-5 3 -11 -3 -14 -14 -3 -11 -1 -20 4 -20 5 0 9 5 9 10 0 6 5 10 10 10 6 0 10
-8 10 -17 0 -15 2 -16 10 -3 5 8 13 11 17 6 4 -4 0 -13 -9 -20 -10 -7 -15 -16
-12 -19 7 -7 42 26 37 36 -2 4 6 7 19 7 18 0 20 -2 8 -10 -8 -5 -11 -12 -7
-16 4 -4 12 -3 18 3 13 13 39 6 39 -9 0 -6 -8 -4 -17 3 -14 12 -15 12 -9 0 5
-8 3 -17 -5 -22 -9 -6 2 -8 31 -7 24 1 39 3 32 6 -6 2 -12 8 -12 13 0 12 47
12 55 -1 3 -5 13 -10 21 -10 8 0 13 4 10 9 -4 5 3 7 15 4 11 -3 23 -12 26 -19
2 -7 11 -10 19 -7 11 4 12 9 3 19 -16 20 5 18 25 -2 13 -12 16 -13 16 -1 0 7
7 14 15 14 8 0 15 -7 15 -14 0 -8 5 -11 10 -8 6 3 10 -2 10 -12 0 -13 5 -10
20 12 11 17 20 24 20 18 0 -7 7 -13 15 -13 8 0 15 -5 15 -10 0 -7 -6 -8 -16
-2 -12 7 -23 2 -41 -16 -24 -23 -24 -26 -9 -38 16 -11 16 -13 -1 -16 -24 -5
-54 2 -48 12 3 4 -2 10 -10 13 -8 4 -12 1 -9 -6 3 -8 -6 -13 -23 -15 -16 -1
-23 2 -17 6 6 4 10 14 9 22 -3 18 36 22 47 6 5 -7 8 -4 8 7 0 10 4 16 10 12 5
-3 7 -13 4 -23 -5 -14 -4 -14 4 -2 20 28 -18 44 -73 30 -20 -5 -36 0 -30 10 3
5 0 7 -9 4 -8 -3 -12 -12 -10 -19 3 -8 12 -11 20 -8 9 3 14 -2 14 -16 0 -12
-3 -20 -7 -20 -22 4 -31 -3 -37 -26 -4 -14 -11 -23 -16 -20 -6 3 -7 -1 -4 -9
9 -22 -5 -20 -24 4 -18 22 -62 35 -62 19 0 -5 6 -9 13 -9 8 0 7 -4 -3 -10 -9
-6 -10 -10 -3 -10 6 0 15 5 18 10 9 15 27 12 19 -2 -4 -7 -3 -10 1 -5 5 4 16
-4 25 -18 15 -23 18 -24 30 -10 7 8 10 18 7 22 -4 3 1 19 10 34 l17 29 23 -22
c13 -12 26 -18 30 -15 3 4 1 7 -6 7 -7 0 -9 5 -6 10 10 17 35 -8 29 -28 -3 -9
1 -6 9 7 11 18 16 21 21 10 5 -11 7 -11 12 -1 7 15 31 16 40 0 5 -7 2 -9 -9
-5 -12 4 -15 2 -11 -11 4 -12 3 -14 -3 -4 -8 10 -15 9 -34 -7 -13 -11 -18 -20
-11 -21 6 0 12 5 12 10 0 6 5 10 11 10 8 0 8 -4 0 -14 -7 -9 -8 -17 -3 -20 6
-3 12 1 16 9 8 21 23 18 29 -6 4 -16 2 -19 -10 -15 -13 5 -13 4 -4 -8 9 -11 7
-15 -10 -19 -11 -3 -19 -10 -15 -15 3 -5 -1 -9 -9 -9 -11 0 -12 4 -4 14 8 9 8
13 1 13 -6 0 -9 9 -7 20 3 15 -1 20 -13 18 -9 -2 -17 2 -17 9 0 15 -15 30 -15
15 0 -7 -5 -12 -11 -12 -5 0 -8 4 -5 8 3 5 -1 9 -9 9 -8 0 -12 -4 -10 -8 3 -4
2 -21 -1 -38 -6 -26 -9 -29 -25 -20 -11 5 -17 15 -13 21 4 7 9 6 14 -2 5 -8 9
-7 14 6 11 29 -2 28 -38 -2 -38 -33 -65 -77 -41 -67 8 3 15 11 15 19 0 8 8 14
18 14 13 0 14 -2 4 -9 -11 -7 -11 -9 2 -14 9 -4 16 -2 16 3 0 6 7 10 16 10 13
0 14 -3 4 -15 -8 -10 -21 -13 -38 -8 -20 5 -23 3 -17 -8 5 -8 5 -11 0 -7 -4 4
-14 0 -22 -10 -8 -9 -12 -11 -8 -4 3 6 1 12 -5 12 -13 0 -10 42 3 51 5 3 1 9
-8 12 -9 4 -13 3 -10 -3 3 -6 -1 -10 -9 -10 -20 0 -20 5 0 25 9 9 13 19 9 23
-4 4 -10 1 -12 -6 -3 -6 -9 -10 -14 -7 -5 4 -6 -2 -2 -11 4 -12 3 -15 -6 -10
-10 6 -10 4 0 -12 8 -12 19 -18 28 -14 14 5 14 4 1 -10 -11 -11 -19 -13 -28
-6 -7 6 -15 8 -19 4 -3 -3 -1 -6 6 -6 8 0 11 -7 7 -15 -5 -14 6 -20 29 -15 5
1 6 -2 2 -6 -12 -12 -37 -13 -37 -2 0 6 -7 8 -15 4 -14 -5 -40 26 -30 36 2 2
-5 9 -15 16 -17 10 -18 9 -13 -6 4 -9 11 -20 16 -23 13 -9 1 -39 -15 -39 -9 0
-8 3 2 10 15 10 8 14 -22 11 -12 -2 -16 3 -12 13 3 9 1 16 -5 16 -10 0 -15
-13 -8 -25 1 -2 -7 -11 -18 -18 -18 -14 -18 -15 9 -12 26 3 27 2 13 -12 -15
-16 -77 -26 -77 -13 0 15 14 19 34 8 18 -10 19 -9 9 3 -10 12 -9 21 2 42 13
26 13 27 -10 27 -13 0 -29 8 -35 18 -11 16 -11 16 -6 0 3 -12 0 -18 -10 -18
-8 0 -12 -5 -9 -10 4 -6 11 -7 17 -4 7 4 8 2 4 -4 -4 -7 -2 -12 4 -12 6 0 8
-4 5 -10 -3 -5 -11 -10 -16 -10 -6 0 -7 5 -3 12 5 8 2 9 -12 4 -10 -5 -24 -9
-31 -9 -7 0 -10 -4 -7 -9 3 -4 -2 -8 -10 -8 -9 0 -16 -4 -16 -10 0 -5 6 -7 13
-4 8 3 14 -1 14 -8 0 -7 3 -20 5 -28 3 -8 3 -12 1 -8 -2 4 -11 4 -20 1 -10 -4
-14 -2 -10 4 4 6 2 17 -5 25 -21 21 -23 52 -3 44 14 -5 14 -2 -2 24 -14 25
-15 34 -5 50 6 11 12 23 12 27 0 5 -5 1 -10 -7 -7 -11 -10 -4 -10 26 0 27 5
44 14 47 9 4 12 17 10 37 -2 18 -1 37 3 44 4 6 8 17 9 23 4 23 45 82 72 104
l27 21 6 -24 c4 -12 7 -17 8 -10z m268 17 c0 -8 -4 -12 -8 -10 -9 6 -30 -20
-22 -28 3 -4 4 -7 0 -7 -17 0 -15 21 5 39 26 25 25 25 25 6z m239 -7 c-2 -22
-15 -37 -17 -20 0 4 -5 13 -11 20 -8 9 -7 11 6 6 9 -3 16 -1 16 5 0 6 2 11 4
11 3 0 4 -10 2 -22z m-72 -20 c-5 -8 -2 -9 10 -5 10 4 15 3 11 -3 -10 -17 -45
-12 -39 5 4 8 10 15 16 15 5 0 6 -5 2 -12z m436 2 c0 -5 -2 -10 -4 -10 -3 0
-8 5 -11 10 -3 6 -1 10 4 10 6 0 11 -4 11 -10z m-30 -4 c0 -2 -7 -7 -16 -10
-8 -3 -12 -2 -9 4 6 10 25 14 25 6z m573 -3 c3 -5 -5 -8 -18 -8 -13 0 -21 3
-18 8 2 4 10 7 18 7 8 0 16 -3 18 -7z m-379 -18 c-4 -8 -8 -15 -10 -15 -2 0
-4 7 -4 15 0 8 4 15 10 15 5 0 7 -7 4 -15z m-229 -5 c3 -6 -1 -7 -9 -4 -18 7
-21 14 -7 14 6 0 13 -4 16 -10z m-32 -19 c3 -14 0 -17 -14 -14 -11 3 -19 0
-19 -8 0 -7 -3 -9 -7 -6 -5 5 21 41 33 46 1 1 4 -7 7 -18z m79 7 c-9 -9 -15
-9 -24 0 -9 9 -7 12 12 12 19 0 21 -3 12 -12z m593 -6 c-3 -3 -11 0 -18 7 -9
10 -8 11 6 5 10 -3 15 -9 12 -12z m-45 -2 c0 -5 -5 -10 -11 -10 -5 0 -7 5 -4
10 3 6 8 10 11 10 2 0 4 -4 4 -10z m-805 -38 l30 -10 -27 -1 c-15 -1 -30 4
-33 9 -10 17 -25 11 -25 -10 0 -12 7 -20 18 -20 13 0 14 -2 4 -9 -8 -4 -13
-11 -13 -15 1 -3 -2 -5 -6 -3 -5 1 -7 5 -5 10 1 4 -6 7 -15 8 -11 0 -13 3 -5
6 20 8 14 22 -8 16 -11 -3 -20 -9 -20 -13 0 -4 -11 -7 -24 -6 -34 2 -12 26 24
26 23 0 64 29 58 41 -2 2 2 -1 7 -7 6 -6 24 -16 40 -22z m206 15 c-10 -9 -11
-8 -5 6 3 10 9 15 12 12 3 -3 0 -11 -7 -18z m184 13 c-3 -5 -12 -10 -18 -10
-7 0 -6 4 3 10 19 12 23 12 15 0z m87 -4 c10 6 11 4 0 -7 -10 -11 -15 -10 -30
6 -15 17 -15 18 0 6 9 -7 23 -9 30 -5z m-262 -30 c0 -3 -4 -8 -10 -11 -5 -3
-10 -1 -10 4 0 6 5 11 10 11 6 0 10 -2 10 -4z m64 -5 c3 -5 -1 -11 -9 -15 -8
-3 -17 0 -21 6 -4 7 -3 8 4 4 7 -4 12 -2 12 3 0 13 7 14 14 2z m34 -16 c-3 -3
-9 2 -12 12 -6 14 -5 15 5 6 7 -7 10 -15 7 -18z m139 3 c-3 -8 -6 -5 -6 6 -1
11 2 17 5 13 3 -3 4 -12 1 -19z m63 16 c0 -8 -19 -13 -24 -6 -3 5 1 9 9 9 8 0
15 -2 15 -3z m-341 -18 c10 -12 8 -13 -8 -9 -12 3 -18 9 -15 14 7 12 10 11 23
-5z m248 -11 c-15 -11 -15 -13 1 -30 16 -18 15 -18 -6 0 -21 17 -21 21 -8 31
9 6 12 15 8 19 -4 5 -1 5 7 0 12 -7 11 -10 -2 -20z m120 -7 c-3 -8 -6 -5 -6 6
-1 11 2 17 5 13 3 -3 4 -12 1 -19z m253 -3 c0 -8 -4 -15 -10 -15 -5 0 -7 7 -4
15 4 8 8 15 10 15 2 0 4 -7 4 -15z m100 11 c0 -2 -7 -7 -16 -10 -8 -3 -12 -2
-9 4 6 10 25 14 25 6z m-883 -23 c0 -9 -4 -10 -14 -2 -9 8 -13 8 -13 1 0 -6
11 -19 24 -29 22 -18 23 -20 7 -30 -12 -8 -22 -8 -32 -1 -11 8 -11 9 3 4 26
-8 31 11 7 28 -12 8 -19 21 -16 29 7 17 34 18 34 0z m40 -5 c-3 -8 -6 -5 -6 6
-1 11 2 17 5 13 3 -3 4 -12 1 -19z m-150 -8 c2 -23 -7 -26 -25 -8 -17 17 -15
28 6 28 11 0 18 -8 19 -20z m316 -5 c4 3 4 2 1 -2 -3 -5 -7 -6 -8 -3 -2 3 -11
-2 -21 -10 -11 -9 -16 -10 -11 -2 4 6 3 12 -3 12 -6 0 -8 7 -4 15 5 14 7 14
23 0 9 -8 20 -13 23 -10z m87 11 c0 -2 -7 -7 -16 -10 -8 -3 -12 -2 -9 4 6 10
25 14 25 6z m-47 -13 c-7 -2 -13 -14 -13 -26 0 -17 -2 -19 -9 -8 -12 19 -3 41
18 40 10 0 11 -2 4 -6z m602 -3 c3 -5 1 -10 -4 -10 -6 0 -11 5 -11 10 0 6 2
10 4 10 3 0 8 -4 11 -10z m-902 -25 c-7 -21 -12 -19 -10 4 0 11 5 18 9 15 4
-3 5 -11 1 -19z m1048 8 c13 -16 12 -17 -3 -4 -10 7 -18 15 -18 17 0 8 8 3 21
-13z m-639 0 c-6 -2 -9 -10 -6 -15 4 -6 2 -8 -4 -4 -5 3 -13 0 -15 -6 -4 -8
-6 -7 -6 4 -1 16 13 26 34 26 6 0 4 -2 -3 -5z m197 4 c-2 -1 -11 -8 -21 -15
-12 -10 -18 -10 -24 -1 -4 7 -3 9 4 5 6 -3 13 -2 17 4 3 5 11 10 17 10 6 0 9
-1 7 -3z m251 -1 c0 -11 -19 -15 -25 -6 -3 5 1 10 9 10 9 0 16 -2 16 -4z
m-920 -56 c-15 -28 -21 -25 -10 5 6 17 6 25 -1 25 -6 0 -7 5 -3 11 12 21 26
-19 14 -41z m1040 46 c0 -2 -7 -7 -16 -10 -8 -3 -12 -2 -9 4 6 10 25 14 25 6z
m-865 -16 c-3 -5 -12 -10 -18 -10 -7 0 -6 4 3 10 19 12 23 12 15 0z m62 -10
c-1 -12 -5 -16 -10 -11 -5 5 -6 14 -3 20 11 16 15 13 13 -9z m277 -16 c3 -8 2
-12 -4 -9 -6 3 -10 10 -10 16 0 14 7 11 14 -7z m-624 -19 c0 -12 -29 -3 -34
10 -4 13 -2 14 14 5 11 -6 20 -13 20 -15z m242 5 c10 -10 14 -22 9 -24 -4 -3
-13 6 -19 19 -14 30 -12 31 10 5z m358 3 c0 -5 -12 -9 -27 -10 -19 -1 -22 1
-12 8 17 11 39 12 39 2z m528 -12 c-12 -19 -28 -19 -28 0 0 6 4 8 9 4 5 -3 12
-1 16 5 3 5 8 10 11 10 2 0 -1 -9 -8 -19z m-1168 5 c0 -3 -4 -8 -10 -11 -5 -3
-10 -1 -10 4 0 6 5 11 10 11 6 0 10 -2 10 -4z m24 -41 c11 -8 15 -15 9 -15 -7
0 -15 5 -19 11 -4 8 -9 7 -15 -2 -7 -11 -9 -10 -9 4 0 21 9 21 34 2z m606 11
c0 -2 -7 -7 -16 -10 -8 -3 -12 -2 -9 4 6 10 25 14 25 6z m456 -8 c5 4 5 3 1
-3 -5 -5 -12 -9 -15 -8 -4 0 -14 -3 -22 -7 -9 -5 -23 -2 -35 6 -19 14 -18 15
13 9 26 -4 32 -3 26 7 -6 10 -5 11 8 1 8 -7 19 -9 24 -5z m-842 -14 c3 -8 2
-12 -4 -9 -6 3 -10 10 -10 16 0 14 7 11 14 -7z m-234 -27 c0 -8 -7 -14 -15
-14 -11 0 -12 4 -4 14 6 7 13 13 15 13 2 0 4 -6 4 -13z m992 1 c-8 -8 -9 -15
-1 -25 8 -9 8 -13 1 -13 -18 0 -24 20 -12 35 7 8 15 15 18 15 3 0 1 -5 -6 -12z
m-812 -2 c0 -2 -7 -6 -15 -10 -8 -3 -15 -1 -15 4 0 6 7 10 15 10 8 0 15 -2 15
-4z m930 -18 c0 -6 -6 -5 -15 2 -8 7 -15 14 -15 16 0 2 7 1 15 -2 8 -4 15 -11
15 -16z m-1628 -55 c7 -9 7 -13 -2 -13 -7 0 -2 -9 11 -21 13 -12 23 -26 21
-31 -2 -6 4 -8 13 -4 9 3 18 -1 21 -9 4 -8 9 -13 14 -10 13 8 42 -21 39 -39
-4 -16 -6 -15 -28 5 l-23 22 7 -24 c4 -13 12 -28 17 -34 6 -6 6 -3 2 10 -7 17
-5 18 8 8 17 -15 28 -8 28 18 0 12 7 17 20 16 11 -1 20 -7 20 -15 0 -8 -5 -10
-12 -6 -7 4 -10 4 -6 -1 4 -4 2 -15 -5 -24 -11 -14 -10 -15 7 -1 11 8 29 14
40 13 20 -3 21 -2 1 6 -17 8 -15 9 12 8 17 -1 29 -5 27 -9 -2 -4 0 -9 6 -13 5
-3 10 -1 10 4 0 6 7 11 15 11 8 0 15 -5 15 -11 0 -5 -5 -7 -11 -3 -8 4 -8 0 0
-15 15 -27 1 -27 -29 1 -16 15 -25 18 -28 10 -2 -7 -7 -10 -12 -7 -4 3 -11 -2
-14 -10 -4 -13 -2 -14 14 -5 14 8 26 8 40 0 19 -10 19 -11 -1 -31 -11 -11 -25
-17 -31 -13 -7 5 -5 12 7 21 11 7 14 13 8 13 -12 0 -26 -17 -29 -36 -1 -6 -5
-21 -9 -33 -4 -12 -2 -21 4 -21 6 0 10 3 10 8 -1 4 -1 15 0 26 1 17 2 18 27 1
l27 -17 -7 26 c-5 22 -2 27 19 32 17 4 24 11 21 20 -3 8 -1 14 5 14 6 0 9 7 5
15 -4 12 -2 13 13 6 10 -6 21 -8 25 -4 3 3 17 -5 31 -19 26 -27 26 -27 -40
-28 -31 -1 -72 -34 -55 -45 5 -3 7 -13 4 -23 -5 -14 -4 -14 4 -3 6 8 8 20 5
27 -5 13 35 40 45 29 3 -3 -3 -8 -15 -11 -15 -4 -21 -13 -19 -30 2 -13 6 -27
11 -32 4 -4 6 5 3 20 -3 18 0 29 9 32 11 4 13 1 8 -14 -4 -11 -2 -20 3 -20 6
0 12 5 14 12 3 8 12 4 26 -10 12 -12 17 -24 12 -27 -14 -8 -13 -35 1 -35 6 0
9 6 6 14 -3 8 1 17 10 20 12 5 14 1 9 -20 -5 -19 -3 -25 6 -21 7 2 12 12 10
22 -2 10 1 14 7 10 14 -8 14 -35 1 -35 -7 0 -7 -7 0 -22 10 -21 10 -21 -3 -6
-8 10 -17 15 -20 11 -4 -3 -7 -1 -7 6 0 8 -7 11 -15 7 -10 -3 -20 6 -31 29 -9
19 -21 32 -26 29 -6 -4 -6 -9 2 -14 6 -4 12 -13 13 -21 2 -8 6 -19 10 -26 4
-7 0 -17 -10 -23 -16 -10 -16 -11 4 -7 13 3 26 1 29 -4 3 -5 0 -9 -7 -9 -6 0
-18 -8 -26 -17 -8 -10 -11 -12 -8 -5 7 13 -29 52 -47 52 -4 0 -8 7 -8 16 0 8
4 13 9 10 12 -8 41 3 41 15 0 5 -7 9 -16 9 -8 0 -13 -4 -9 -9 3 -6 -4 -9 -15
-8 -11 1 -20 5 -20 10 0 4 -5 5 -11 1 -8 -4 -7 -9 2 -15 19 -12 2 -11 -21 1
-13 7 -21 7 -26 -2 -5 -7 -3 -8 6 -3 10 6 12 4 7 -8 -3 -9 -1 -18 6 -20 7 -2
-3 -4 -21 -5 -27 -1 -31 2 -22 13 8 9 8 15 0 20 -5 3 -10 16 -10 28 0 18 -3
16 -24 -13 -24 -35 -25 -60 -2 -41 9 8 13 1 14 -24 2 -22 -2 -35 -9 -35 -7 0
-9 3 -6 7 4 3 2 12 -4 20 -9 10 -15 11 -25 2 -11 -9 -14 -8 -11 7 1 11 6 25
10 32 5 7 4 12 -2 12 -6 0 -11 7 -11 15 0 8 -2 15 -4 15 -2 0 -12 3 -20 6 -12
5 -15 2 -10 -10 3 -9 10 -13 15 -10 15 9 10 -1 -11 -26 -11 -13 -20 -19 -20
-14 0 6 5 15 11 21 8 8 4 17 -12 32 l-22 20 27 11 c35 13 36 13 30 -5 -4 -10
0 -15 11 -15 9 0 13 5 10 10 -3 6 0 10 7 11 7 0 1 5 -14 11 -16 5 -28 16 -28
24 0 8 -7 14 -15 14 -8 0 -15 5 -15 11 0 6 10 9 23 7 12 -2 22 -8 22 -15 0 -6
4 -15 9 -20 5 -4 7 -3 3 2 -3 6 8 18 24 27 27 16 29 16 39 0 6 -11 9 -12 10
-4 0 7 -6 20 -14 28 -16 16 -30 19 -21 5 9 -16 -35 -35 -48 -22 -14 14 -57 14
-57 0 0 -5 -4 -8 -9 -4 -5 3 -12 1 -16 -5 -3 -5 -15 -10 -26 -10 -11 0 -18 4
-14 9 3 5 -8 3 -25 -5 -36 -18 -40 -27 -6 -14 13 5 27 6 30 2 8 -8 45 -10 44
-3 -2 18 4 22 17 11 8 -7 12 -17 8 -24 -4 -6 2 -4 12 4 16 13 18 13 13 0 -3
-8 -15 -15 -26 -14 -17 0 -19 -2 -11 -13 9 -9 8 -13 0 -13 -6 0 -14 6 -17 13
-3 8 -12 14 -20 14 -12 0 -9 -5 7 -18 13 -10 27 -19 32 -19 4 0 7 -5 7 -11 0
-5 -5 -7 -12 -3 -7 4 -8 3 -4 -5 4 -6 11 -9 16 -6 5 3 11 1 14 -4 4 -5 2 -12
-4 -16 -6 -4 -8 -10 -5 -15 3 -4 -3 -7 -12 -5 -29 6 -29 6 -8 15 19 8 19 9 -2
9 -13 1 -23 -3 -23 -9 0 -5 -5 -10 -11 -10 -6 0 -7 6 -2 13 4 6 -5 4 -19 -5
-26 -17 -27 -17 -33 3 -5 14 -12 18 -27 13 -18 -5 -19 -4 -8 16 8 15 8 20 1
16 -7 -5 -11 3 -11 19 0 17 4 24 12 19 7 -4 8 -3 4 4 -11 18 5 64 20 58 8 -3
14 -1 14 4 0 6 -5 10 -11 10 -14 0 -7 42 9 55 12 9 16 25 27 92 2 16 6 37 9
48 2 11 5 25 6 30 1 6 5 1 7 -10 3 -11 10 -26 15 -32z m98 32 c5 3 12 0 16 -6
4 -7 3 -9 -4 -5 -6 3 -16 -2 -22 -11 -11 -17 -11 -17 -6 0 3 9 1 17 -5 17 -6
0 -7 5 -3 12 6 9 9 9 12 0 2 -7 8 -10 12 -7z m355 -13 c3 -16 0 -19 -13 -15
-9 4 -11 8 -5 10 7 3 9 12 6 21 -3 9 -3 14 1 11 4 -4 8 -16 11 -27z m465 8 c0
-5 -7 -7 -15 -4 -8 4 -12 10 -9 15 6 11 24 2 24 -11z m-580 -5 c-14 -17 -30
-20 -30 -6 0 5 8 12 18 14 9 3 19 5 21 6 2 0 -2 -6 -9 -14z m-73 -10 c0 -8 -4
-12 -9 -9 -5 3 -6 10 -3 15 9 13 12 11 12 -6z m1168 5 c7 -12 -2 -12 -30 0
-19 8 -19 9 2 9 12 1 25 -3 28 -9z m59 1 c3 -5 -1 -11 -9 -14 -9 -4 -12 -1 -8
9 6 16 10 17 17 5z m-1093 -24 c-10 -9 -11 -8 -5 6 3 10 9 15 12 12 3 -3 0
-11 -7 -18z m320 0 c-10 -9 -11 -8 -5 6 3 10 9 15 12 12 3 -3 0 -11 -7 -18z
m826 1 c-3 -8 -6 -5 -6 6 -1 11 2 17 5 13 3 -3 4 -12 1 -19z m601 4 c2 -7 -1
-12 -8 -12 -6 0 -9 4 -6 9 4 5 1 12 -4 14 -6 3 -5 4 2 3 6 -1 14 -8 16 -14z
m-1898 -7 c0 -2 -7 -5 -15 -9 -9 -3 -15 0 -15 9 0 9 6 12 15 9 8 -4 15 -7 15
-9z m-102 -1 c-4 -3 -2 -18 2 -34 8 -28 7 -28 -17 -17 -23 10 -24 12 -7 24 10
8 13 13 5 13 -7 0 -9 5 -6 10 3 6 11 10 17 10 6 0 9 -3 6 -6z m27 -3 c3 -5 2
-12 -3 -15 -5 -3 -9 1 -9 9 0 17 3 19 12 6z m785 -16 c-1 -18 -1 -19 -11 -2
-6 9 -14 15 -19 12 -5 -3 -11 -1 -15 5 -4 6 4 9 19 8 19 -2 26 -8 26 -23z
m190 10 c-7 -8 -17 -15 -23 -15 -6 0 -2 7 9 15 25 19 30 19 14 0z m377 8 c-4
-3 -1 -13 6 -21 11 -13 9 -14 -10 -1 -16 9 -19 16 -10 21 15 9 23 10 14 1z
m-919 -21 c2 -7 -1 -12 -8 -12 -6 0 -9 4 -6 9 4 5 1 12 -4 14 -6 3 -5 4 2 3 6
-1 14 -8 16 -14z m262 -7 c-7 -8 -17 -15 -23 -15 -6 0 -2 7 9 15 25 19 30 19
14 0z m1361 -2 c13 -16 12 -17 -3 -4 -10 7 -18 15 -18 17 0 8 8 3 21 -13z
m-2030 -16 c-7 -7 -7 -14 1 -24 8 -11 7 -12 -6 -7 -9 3 -16 14 -16 23 0 22 10
32 22 25 6 -4 6 -10 -1 -17z m249 19 c0 -2 -7 -7 -16 -10 -8 -3 -12 -2 -9 4 6
10 25 14 25 6z m-170 -11 c0 -2 -6 -8 -13 -14 -10 -8 -14 -7 -14 2 0 8 6 14
14 14 7 0 13 -1 13 -2z m520 -4 c0 -5 -7 -12 -16 -15 -14 -5 -15 -4 -4 9 14
17 20 19 20 6z m574 -7 c5 -14 4 -15 -9 -4 -17 14 -19 20 -6 20 5 0 12 -7 15
-16z m-147 0 c-3 -3 -12 -4 -19 -1 -8 3 -5 6 6 6 11 1 17 -2 13 -5z m378 -3
c3 -5 2 -12 -3 -15 -5 -3 -9 1 -9 9 0 17 3 19 12 6z m-1304 -8 c-10 -4 -5 -10
15 -18 l29 -12 -35 2 c-19 2 -39 3 -44 4 -13 1 26 31 39 30 6 0 4 -3 -4 -6z
m72 -8 c-3 -9 -8 -14 -10 -11 -3 3 -2 9 2 15 9 16 15 13 8 -4z m151 -1 c3 -8
2 -12 -4 -9 -6 3 -10 10 -10 16 0 14 7 11 14 -7z m302 -2 c0 -13 -8 -18 -27
-17 -15 0 -25 4 -22 8 3 5 11 6 19 3 8 -3 14 1 14 9 0 8 4 15 8 15 4 0 8 -8 8
-18z m689 8 c-3 -5 -12 -10 -18 -10 -7 0 -6 4 3 10 19 12 23 12 15 0z m-320
-20 c9 8 14 7 18 -3 5 -15 -15 -15 -46 -2 -15 6 -16 10 -5 16 8 6 14 3 16 -7
3 -11 7 -12 17 -4z m45 -15 c0 -5 -5 -3 -10 5 -5 8 -10 20 -10 25 0 6 5 3 10
-5 5 -8 10 -19 10 -25z m187 16 c0 -11 -5 -18 -9 -15 -4 3 -5 11 -1 19 7 21
12 19 10 -4z m253 -11 c0 -5 -5 -10 -11 -10 -5 0 -7 5 -4 10 3 6 8 10 11 10 2
0 4 -4 4 -10z m450 -9 c0 -4 -6 -8 -13 -8 -8 0 -14 6 -14 13 0 7 6 10 14 7 7
-3 13 -8 13 -12z m-489 -14 c-10 -9 -11 -8 -5 6 3 10 9 15 12 12 3 -3 0 -11
-7 -18z m-597 -2 c-4 -8 -8 -15 -10 -15 -2 0 -4 7 -4 15 0 8 4 15 10 15 5 0 7
-7 4 -15z m361 5 c-3 -5 -1 -10 6 -10 7 0 10 -3 6 -6 -9 -9 -28 6 -22 17 4 5
8 9 11 9 3 0 2 -4 -1 -10z m-215 -6 c0 -8 -19 -13 -24 -6 -3 5 1 9 9 9 8 0 15
-2 15 -3z m279 -7 c11 4 10 1 -4 -10 -26 -22 -30 -21 -32 4 -2 16 1 19 9 11 6
-6 18 -8 27 -5z m691 9 c0 -2 -8 -10 -17 -17 -16 -13 -17 -12 -4 4 13 16 21
21 21 13z m-1760 -10 c0 -3 -4 -8 -10 -11 -5 -3 -10 -1 -10 4 0 6 5 11 10 11
6 0 10 -2 10 -4z m105 -14 c4 3 15 -2 26 -13 21 -21 26 -37 7 -22 -7 6 -21 9
-30 8 -10 -2 -18 3 -18 11 0 8 -3 14 -7 14 -5 0 -8 -11 -8 -25 0 -14 3 -25 8
-25 4 0 7 -7 7 -15 0 -24 20 -17 21 8 1 15 3 17 6 6 2 -10 13 -16 27 -15 18 1
22 6 21 29 -1 15 3 31 8 34 6 3 7 1 3 -5 -12 -19 10 -21 26 -2 9 10 15 20 13
22 -2 2 5 4 16 4 18 0 19 -2 4 -12 -9 -7 -16 -16 -16 -21 1 -4 -3 -9 -9 -9 -5
-1 -13 -2 -16 -3 -4 0 -1 -8 6 -16 11 -13 15 -13 23 -3 6 10 8 9 4 -4 -5 -15
-4 -15 23 0 15 9 26 21 23 28 -4 12 14 30 22 22 10 -10 -9 -47 -26 -51 -12 -3
-19 -14 -18 -29 0 -20 1 -21 8 -4 8 21 51 33 51 15 0 -7 -9 -9 -21 -6 -16 4
-18 3 -8 -9 9 -11 8 -14 -2 -15 -15 -1 -36 -5 -59 -11 -8 -3 -12 -3 -7 -1 14
8 7 39 -13 56 -23 20 -34 22 -24 6 4 -7 -4 -20 -17 -31 -13 -10 -19 -17 -12
-16 6 2 11 -1 12 -7 0 -12 -49 -7 -67 7 -9 8 -20 8 -38 -1 -35 -16 -44 -14
-44 9 0 11 5 20 10 20 6 0 10 -8 10 -17 0 -14 2 -15 9 -5 4 8 11 13 15 13 19
-3 27 0 21 9 -3 5 -11 8 -18 6 -7 -1 -9 -1 -4 1 4 3 5 9 1 14 -3 5 0 9 6 9 6
0 10 8 8 18 -1 9 1 23 6 31 7 11 10 11 17 0 4 -7 11 -11 14 -7z m59 6 c-3 -4
-9 -8 -15 -8 -5 0 -9 4 -9 8 0 5 7 9 15 9 8 0 12 -4 9 -9z m576 -3 c11 -13 10
-14 -4 -9 -9 3 -16 10 -16 15 0 13 6 11 20 -6z m150 11 c0 -2 -8 -10 -17 -17
-16 -13 -17 -12 -4 4 13 16 21 21 21 13z m-627 -18 c-4 -7 -8 -16 -8 -20 0
-14 -15 -21 -15 -7 0 8 5 20 12 27 16 16 21 15 11 0z m81 -19 c4 6 12 11 18
11 6 0 8 -3 5 -7 -4 -3 1 -15 10 -26 17 -19 17 -19 -2 -15 -11 2 -19 10 -17
17 2 8 -3 11 -11 8 -17 -7 -37 11 -37 33 1 10 5 7 14 -9 8 -15 16 -20 20 -12z
m93 9 c-3 -8 -6 -5 -6 6 -1 11 2 17 5 13 3 -3 4 -12 1 -19z m163 5 c0 -3 -7
-3 -15 1 -8 3 -15 1 -15 -4 0 -6 6 -10 13 -10 8 0 7 -3 -3 -9 -21 -14 -32 -3
-20 19 9 17 40 19 40 3z m17 -15 c-3 -7 -5 -2 -5 12 0 14 2 19 5 13 2 -7 2
-19 0 -25z m41 12 c-7 -10 -14 -17 -17 -15 -4 4 18 35 25 35 2 0 -1 -9 -8 -20z
m-628 0 c0 -5 -7 -10 -15 -10 -8 0 -15 5 -15 10 0 6 7 10 15 10 8 0 15 -4 15
-10z m387 -5 c0 -19 -24 -27 -31 -10 -3 8 3 16 12 18 9 3 17 5 18 6 0 0 1 -6
1 -14z m63 7 c0 -11 40 -9 59 2 10 6 12 5 7 -2 -17 -27 -44 -32 -68 -12 -12
11 -17 19 -10 20 6 0 12 -4 12 -8z m1355 -2 c3 -6 -1 -7 -9 -4 -18 7 -21 14
-7 14 6 0 13 -4 16 -10z m-720 -17 c0 -6 3 -15 8 -19 4 -4 7 -12 7 -18 0 -6
-5 -3 -11 6 -5 10 -9 21 -9 25 1 4 -7 11 -17 15 -16 7 -16 8 2 5 11 -1 20 -7
20 -14z m668 0 c-4 -10 -9 -11 -19 -2 -19 15 -18 18 5 16 11 -1 17 -6 14 -14z
m-806 -8 c0 -17 -13 -20 -21 -6 -4 5 0 12 6 14 7 3 13 6 14 6 0 1 1 -6 1 -14z
m84 -10 c5 4 9 1 9 -4 0 -6 -7 -11 -15 -11 -8 0 -15 5 -15 11 0 5 -4 7 -10 4
-6 -4 -7 1 -3 11 5 15 7 15 15 0 5 -9 13 -14 19 -11z m-601 -6 c0 -6 -4 -7
-10 -4 -5 3 -10 11 -10 16 0 6 5 7 10 4 6 -3 10 -11 10 -16z m70 1 c0 -5 -5
-10 -11 -10 -5 0 -7 5 -4 10 3 6 8 10 11 10 2 0 4 -4 4 -10z m-524 -9 c-3 -5
-17 -8 -31 -6 -14 1 -25 -2 -25 -7 0 -5 -5 -6 -11 -2 -16 9 3 19 41 22 18 1
29 -2 26 -7z m584 -9 c0 -7 -4 -11 -9 -8 -5 4 -11 3 -14 -1 -2 -5 -2 -2 -1 5
5 17 -13 15 -20 -3 -3 -8 4 -21 17 -30 12 -8 17 -15 12 -15 -6 1 -23 12 -40
26 -16 13 -23 22 -14 19 10 -4 19 0 22 9 7 18 47 17 47 -2z m863 11 c-7 -2
-13 -11 -13 -20 0 -12 2 -12 16 1 22 23 30 20 10 -3 -10 -11 -15 -24 -11 -30
3 -6 0 -9 -8 -5 -23 8 -19 65 5 63 10 0 10 -2 1 -6z m-1046 -35 c-3 -7 -5 -2
-5 12 0 14 2 19 5 13 2 -7 2 -19 0 -25z m331 21 c-2 -6 -7 -10 -11 -10 -4 1
-15 1 -24 2 -15 0 -15 2 2 9 28 12 37 12 33 -1z m1033 -6 c13 -16 12 -17 -3
-4 -10 7 -18 15 -18 17 0 8 8 3 21 -13z m-1790 -20 c-8 -15 -10 -15 -11 -2 0
17 10 32 18 25 2 -3 -1 -13 -7 -23z m409 19 c0 -4 -4 -12 -8 -19 -6 -9 -11 -8
-19 5 -9 15 -7 18 8 19 11 1 19 -1 19 -5z m1453 -7 c-3 -9 -8 -14 -10 -11 -3
3 -2 9 2 15 9 16 15 13 8 -4z m-1643 -5 c0 -5 -4 -10 -10 -10 -5 0 -10 5 -10
10 0 6 5 10 10 10 6 0 10 -4 10 -10z m1124 2 c3 -5 -1 -9 -9 -9 -8 0 -12 4 -9
9 3 4 7 8 9 8 2 0 6 -4 9 -8z m-499 -11 c3 -5 2 -12 -3 -15 -5 -3 -9 1 -9 9 0
17 3 19 12 6z m-725 -16 c11 -14 10 -14 -12 -6 -23 8 -24 7 -20 -19 2 -15 -1
-31 -7 -35 -8 -5 -10 1 -5 21 5 19 4 25 -5 20 -15 -9 -14 7 1 22 16 16 33 15
48 -3z m1301 -8 c-10 -9 -11 -8 -5 6 3 10 9 15 12 12 3 -3 0 -11 -7 -18z m154
13 c3 -5 1 -10 -4 -10 -6 0 -11 5 -11 10 0 6 2 10 4 10 3 0 8 -4 11 -10z
m-1075 -4 c0 -2 -7 -6 -15 -10 -8 -3 -15 -1 -15 4 0 6 7 10 15 10 8 0 15 -2
15 -4z m394 -4 c3 -5 -1 -9 -9 -9 -8 0 -15 4 -15 9 0 4 4 8 9 8 6 0 12 -4 15
-8z m-659 -22 c-3 -5 -1 -10 4 -10 6 0 11 5 11 10 0 6 5 10 12 10 8 0 7 -6 -4
-16 -16 -16 -43 -11 -33 7 4 5 8 9 11 9 3 0 2 -4 -1 -10z m405 0 c0 -5 -2 -10
-4 -10 -3 0 -8 5 -11 10 -3 6 -1 10 4 10 6 0 11 -4 11 -10z m828 -2 c-5 -14
-36 -20 -43 -8 -3 5 4 7 15 5 11 -2 20 0 20 6 0 5 3 9 6 9 3 0 4 -5 2 -12z
m-653 -7 c3 -5 1 -12 -5 -16 -5 -3 -10 -1 -10 5 0 6 -5 8 -12 4 -7 -4 -8 -3
-4 4 9 14 23 15 31 3z m70 -13 c5 4 5 1 0 -7 -7 -12 -10 -11 -22 4 -8 13 -13
14 -13 5 0 -7 -3 -11 -6 -7 -3 3 -3 11 2 18 5 9 10 8 19 -4 7 -9 16 -13 20 -9z
m75 12 c0 -5 -5 -10 -11 -10 -5 0 -7 5 -4 10 3 6 8 10 11 10 2 0 4 -4 4 -10z
m-583 -22 c-3 -8 -6 -5 -6 6 -1 11 2 17 5 13 3 -3 4 -12 1 -19z m28 3 c3 -5 2
-12 -3 -15 -5 -3 -9 1 -9 9 0 17 3 19 12 6z m1330 0 c3 -5 2 -12 -3 -15 -5 -3
-9 1 -9 9 0 17 3 19 12 6z m-1438 -7 c-3 -3 -12 -4 -19 -1 -8 3 -5 6 6 6 11 1
17 -2 13 -5z m358 -4 c3 -5 2 -10 -4 -10 -5 0 -13 5 -16 10 -3 6 -2 10 4 10 5
0 13 -4 16 -10z m-185 -5 c0 -7 -30 -13 -34 -7 -3 4 4 9 15 9 10 1 19 0 19 -2z
m310 1 c0 -2 -7 -7 -16 -10 -8 -3 -12 -2 -9 4 6 10 25 14 25 6z m-1230 -38 c0
-5 -4 -6 -10 -3 -5 3 -10 1 -10 -4 0 -6 -4 -11 -9 -11 -6 0 -9 8 -8 19 1 12 7
17 19 13 10 -2 18 -9 18 -14z m161 4 c-17 -32 -38 -45 -44 -28 -7 17 8 30 23
21 6 -3 10 1 10 9 0 9 5 16 10 16 7 0 7 -6 1 -18z m559 -3 c0 -5 -4 -9 -8 -9
-5 0 -9 7 -9 15 0 8 4 12 9 9 4 -3 8 -9 8 -15z m1104 13 c3 -5 -1 -9 -9 -9 -8
0 -12 4 -9 9 3 4 7 8 9 8 2 0 6 -4 9 -8z m-1769 -12 c-3 -5 -12 -10 -18 -10
-7 0 -6 4 3 10 19 12 23 12 15 0z m603 -4 c-7 -8 -15 -12 -17 -11 -5 6 10 25
20 25 5 0 4 -6 -3 -14z m1252 -6 c-6 -11 -18 -19 -28 -19 -16 1 -16 2 1 6 9 2
17 11 17 19 0 8 5 14 10 14 7 0 7 -6 0 -20z m499 3 c0 -11 -3 -13 -6 -5 -2 6
-10 9 -15 6 -7 -4 -8 -2 -4 4 11 18 26 14 25 -5z m-1612 -8 c0 -8 -4 -12 -9
-9 -4 3 -8 0 -8 -7 0 -7 -3 -9 -6 -6 -4 4 -1 13 6 22 15 19 17 19 17 0z m470
9 c-3 -3 -12 -4 -19 -1 -8 3 -5 6 6 6 11 1 17 -2 13 -5z m-700 -10 c-3 -3 -12
-4 -19 -1 -8 3 -5 6 6 6 11 1 17 -2 13 -5z m-423 -38 c-10 -8 -21 -12 -23 -10
-3 2 4 11 15 18 10 8 21 12 23 10 3 -2 -4 -11 -15 -18z m51 4 c-10 -11 -21
-17 -24 -14 -3 4 0 9 7 11 6 3 10 9 6 14 -3 5 3 9 12 9 16 0 16 -2 -1 -20z
m105 14 c0 -8 -19 -13 -24 -6 -3 5 1 9 9 9 8 0 15 -2 15 -3z m780 -15 c0 -4
-7 -6 -15 -3 -8 4 -15 10 -15 15 0 4 7 6 15 3 8 -4 15 -10 15 -15z m-60 7 c0
-2 -6 -9 -14 -15 -11 -9 -16 -9 -22 0 -4 7 -3 9 4 5 6 -3 13 -2 17 4 6 10 15
14 15 6z m-246 -37 c-9 -15 -20 -10 -20 10 0 15 3 17 13 9 7 -6 10 -14 7 -19z
m-317 2 c0 -11 -5 -18 -9 -15 -4 3 -5 11 -1 19 7 21 12 19 10 -4z m-472 1 c-5
-5 20 -32 31 -32 27 0 85 -40 98 -68 9 -18 20 -31 25 -27 5 3 11 0 13 -5 2 -6
13 -12 24 -12 19 -2 20 -6 13 -32 -5 -17 -9 -32 -9 -33 0 -1 7 0 16 4 9 3 19
1 23 -4 3 -6 14 -7 26 -2 15 6 16 8 4 8 -22 1 -43 27 -29 36 6 4 9 1 8 -7 -2
-7 3 -12 10 -10 6 1 18 3 25 5 6 1 11 -4 10 -10 -2 -7 1 -13 5 -13 4 0 14 6
22 13 12 10 12 9 2 -4 -18 -24 -3 -30 19 -8 23 23 23 25 4 27 -44 5 -43 5 -32
24 7 10 15 18 20 18 4 0 5 -4 2 -10 -3 -5 -3 -15 1 -21 4 -8 9 -7 15 2 6 10
10 9 15 -5 5 -12 2 -23 -9 -31 -10 -7 -17 -18 -17 -26 0 -11 2 -11 10 1 9 13
10 13 10 0 0 -8 -5 -22 -10 -30 -9 -13 -10 -13 -10 0 0 8 -12 20 -26 27 -23
11 -24 10 -20 -10 3 -12 3 -16 0 -9 -7 15 -40 16 -50 1 -4 -8 1 -9 17 -4 24 7
24 7 4 -10 -15 -12 -16 -15 -4 -12 12 4 17 -1 17 -19 0 -13 -4 -21 -8 -19 -5
3 -11 -1 -14 -7 -3 -7 -3 -3 0 10 3 12 1 22 -5 22 -6 0 -11 -4 -11 -10 0 -5
-6 -9 -12 -7 -7 1 -12 -4 -10 -10 1 -7 -2 -13 -8 -13 -6 0 -10 7 -10 15 0 8
-9 19 -20 25 -11 6 -20 18 -20 26 0 8 5 12 10 9 17 -11 11 0 -12 19 -18 16
-20 16 -15 2 6 -14 3 -16 -13 -11 -11 4 -20 2 -20 -4 0 -6 9 -11 21 -11 15 0
19 -5 15 -15 -3 -8 -2 -14 3 -12 10 3 61 -57 61 -72 0 -6 7 -11 16 -11 9 0 18
-9 21 -21 5 -16 8 -18 15 -7 8 10 9 10 6 -1 -7 -24 -28 -25 -28 -2 0 23 -15
28 -23 9 -3 -8 -6 -5 -6 5 -1 10 -5 15 -11 12 -6 -3 -7 1 -4 9 4 11 0 16 -10
16 -9 0 -16 8 -16 18 0 14 -2 15 -10 2 -6 -9 -5 -17 2 -21 6 -4 7 -12 4 -18
-4 -6 -3 -11 2 -11 5 0 9 -6 9 -14 0 -8 -6 -12 -14 -9 -7 3 -13 13 -13 22 0 9
-5 23 -11 31 -8 12 -9 10 -4 -9 5 -16 4 -21 -4 -17 -6 4 -11 0 -11 -9 0 -19
46 -38 73 -29 16 5 14 1 -9 -22 -26 -25 -31 -37 -25 -59 0 -3 13 2 29 12 l27
17 -25 -25 c-22 -21 -26 -22 -36 -9 -16 23 -25 52 -14 45 6 -3 10 -2 10 4 0 5
-6 12 -12 15 -7 3 -2 3 12 0 17 -4 22 -3 15 4 -12 13 -97 23 -89 10 3 -4 -2
-8 -11 -8 -11 0 -15 5 -12 14 9 23 -2 25 -40 10 -19 -8 -32 -11 -29 -6 3 6 -1
12 -9 16 -18 6 -18 2 -5 -27 9 -18 8 -19 -2 -6 -10 15 -13 15 -30 -5 -14 -15
-21 -17 -24 -8 -8 17 -24 15 -24 -4 0 -14 -2 -15 -17 -3 -9 8 -14 9 -11 4 4
-6 -2 -11 -14 -11 -19 0 -19 1 2 18 12 10 30 18 41 18 24 0 30 12 14 33 -12
16 -13 16 -19 1 -4 -9 -9 -14 -12 -11 -3 3 -19 -8 -36 -25 -16 -16 -33 -27
-36 -24 -3 4 3 12 13 19 16 13 16 14 1 20 -17 7 -23 47 -6 47 5 0 7 13 4 30
-6 28 0 35 27 32 4 -1 4 17 2 40 -6 45 8 61 42 52 16 -4 17 -3 5 5 -12 8 -11
17 9 58 13 26 34 62 46 78 12 17 24 37 27 46 3 9 13 16 22 16 9 0 14 -2 11 -5z
m214 -10 c-11 -18 -39 -26 -39 -12 0 5 33 25 48 29 1 1 -3 -7 -9 -17z m371 12
c0 -8 -19 -13 -24 -6 -3 5 1 9 9 9 8 0 15 -2 15 -3z m-421 -53 c-1 -12 -3 -11
-6 3 -4 15 -7 16 -14 5 -8 -11 -9 -9 -7 6 2 12 -2 19 -10 17 -8 -1 -11 2 -7 8
9 15 45 -18 44 -39z m807 36 c4 -4 0 -7 -9 -7 -9 0 -18 4 -21 9 -7 10 20 9 30
-2z m773 -13 c-13 -16 -43 -19 -34 -4 4 6 11 7 17 4 7 -5 9 -1 5 9 -4 11 -2
14 9 10 11 -4 12 -9 3 -19z m-329 12 c0 -3 -4 -8 -10 -11 -5 -3 -10 -1 -10 4
0 6 5 11 10 11 6 0 10 -2 10 -4z m-1105 -16 c3 -6 -1 -7 -9 -4 -18 7 -21 14
-7 14 6 0 13 -4 16 -10z m549 2 c3 -4 -11 -9 -31 -9 -25 -1 -32 2 -22 8 18 11
46 12 53 1z m206 3 c0 -7 -30 -13 -34 -7 -3 4 4 9 15 9 10 1 19 0 19 -2z
m-481 -26 c-12 -7 -12 -9 0 -9 8 0 12 -3 8 -6 -10 -10 -26 6 -21 21 4 8 11 12
16 9 6 -4 5 -10 -3 -15z m423 -1 c-6 -6 -15 -8 -19 -4 -4 4 -1 11 7 16 19 12
27 3 12 -12z m445 8 c4 -4 1 -6 -7 -4 -8 2 -14 -3 -12 -10 1 -8 -2 -11 -8 -7
-15 10 -12 34 5 31 8 -1 18 -6 22 -10z m484 -9 c-10 -9 -11 -8 -5 6 3 10 9 15
12 12 3 -3 0 -11 -7 -18z m-621 -18 c0 -4 -9 -9 -21 -12 -16 -4 -18 -3 -8 9 8
10 8 14 0 14 -6 0 -11 5 -11 10 0 6 8 5 20 -2 11 -7 20 -16 20 -19z m380 21
c0 -5 -2 -10 -4 -10 -3 0 -8 5 -11 10 -3 6 -1 10 4 10 6 0 11 -4 11 -10z m302
-9 c-3 -9 -7 -11 -9 -4 -3 7 -12 9 -21 6 -12 -3 -14 -2 -4 4 20 15 41 12 34
-6z m-604 -3 c8 -10 4 -13 -13 -14 -19 -2 -21 1 -12 12 15 16 13 16 25 2z
m347 2 c3 -5 -1 -10 -10 -10 -9 0 -13 5 -10 10 3 6 8 10 10 10 2 0 7 -4 10
-10z m-1508 -16 c0 -6 -9 -9 -19 -6 -10 2 -18 7 -18 11 0 4 8 7 18 7 10 0 19
-5 19 -12z m393 -19 c0 -5 -5 -3 -10 5 -5 8 -10 20 -10 25 0 6 5 3 10 -5 5 -8
10 -19 10 -25z m527 20 c0 -8 -4 -12 -9 -9 -5 3 -6 10 -3 15 9 13 12 11 12 -6z
m1181 -26 c-3 -8 -7 -3 -11 10 -4 17 -3 21 5 13 5 -5 8 -16 6 -23z m-2121 -13
c2 -2 -12 -2 -31 -2 -19 1 -32 4 -29 9 2 4 -1 7 -6 7 -6 0 -11 4 -11 9 0 8 65
-12 77 -23z m1478 24 c3 -5 1 -10 -4 -10 -6 0 -11 5 -11 10 0 6 2 10 4 10 3 0
8 -4 11 -10z m332 4 c-3 -3 -12 -4 -19 -1 -8 3 -5 6 6 6 11 1 17 -2 13 -5z
m-1177 -8 c0 -3 -4 -8 -10 -11 -5 -3 -10 -1 -10 4 0 6 5 11 10 11 6 0 10 -2
10 -4z m660 -18 c10 -21 10 -21 -3 -6 -8 10 -18 14 -22 10 -5 -4 -5 -1 -1 6
10 17 14 15 26 -10z m46 7 c-1 -8 -5 -17 -8 -21 -5 -4 -4 16 1 34 3 9 9 -1 7
-13z m-764 -27 c-6 -6 -12 -6 -17 3 -5 8 -4 10 3 5 7 -4 12 0 13 11 0 12 2 13
6 5 3 -8 1 -18 -5 -24z m-185 2 c4 -12 3 -13 -5 -1 -5 7 -15 10 -21 7 -6 -4
-11 -2 -11 4 0 17 33 8 37 -10z m843 15 c0 -7 -30 -13 -34 -7 -3 4 4 9 15 9
10 1 19 0 19 -2z m840 -15 c0 -11 -4 -20 -9 -20 -5 0 -7 9 -4 20 3 11 7 20 9
20 2 0 4 -9 4 -20z m-909 -7 c13 -16 12 -17 -3 -4 -10 7 -18 15 -18 17 0 8 8
3 21 -13z m351 -5 c-7 -7 -12 -8 -12 -2 0 14 12 26 19 19 2 -3 -1 -11 -7 -17z
m-889 5 c-7 -2 -19 -2 -25 0 -7 3 -2 5 12 5 14 0 19 -2 13 -5z m426 -23 c4 0
8 -6 8 -13 0 -8 -6 -14 -13 -14 -7 0 -10 6 -7 14 3 7 -2 13 -11 13 -14 0 -15
2 -4 14 11 12 13 12 16 0 2 -8 7 -14 11 -14z m193 21 c8 11 9 11 5 -1 -2 -9
-14 -14 -28 -14 -13 1 -29 -6 -36 -15 -12 -14 -12 -14 -7 2 8 21 47 40 53 25
2 -6 8 -4 13 3z m-97 -11 c3 -6 -1 -7 -9 -4 -18 7 -21 14 -7 14 6 0 13 -4 16
-10z m-25 -30 c0 -5 -5 -12 -10 -15 -6 -4 -10 -3 -9 2 4 22 -3 23 -22 2 l-20
-24 16 27 c15 24 45 29 45 8z m200 16 c0 -3 -4 -8 -10 -11 -5 -3 -10 -1 -10 4
0 6 5 11 10 11 6 0 10 -2 10 -4z m45 -14 c-3 -3 -11 0 -18 7 -9 10 -8 11 6 5
10 -3 15 -9 12 -12z m-1181 -1 c3 -5 16 -7 29 -4 12 3 19 2 15 -2 -8 -9 32
-42 45 -37 14 4 7 -16 -8 -22 -10 -3 -18 1 -22 12 -8 20 -35 42 -45 36 -4 -3
2 -14 12 -24 22 -22 27 -44 8 -37 -7 2 -12 10 -10 16 1 7 -2 10 -7 7 -5 -4
-11 -1 -13 6 -3 8 -7 6 -11 -5 -4 -12 -1 -17 9 -17 10 0 14 -6 10 -15 -3 -9 1
-18 9 -21 22 -9 18 -19 -6 -21 -14 -1 -19 3 -15 12 3 9 -2 13 -15 12 -10 -1
-19 -4 -19 -8 0 -8 -28 -19 -44 -18 -10 1 -26 -21 -26 -35 0 -5 7 -2 17 5 14
12 16 12 11 -1 -3 -10 -15 -14 -34 -12 -28 3 -28 3 -9 -11 14 -11 25 -12 37
-6 14 7 18 6 18 -6 0 -8 6 -15 14 -15 8 0 13 8 12 17 -1 12 7 18 22 19 20 2
20 1 2 -3 -12 -2 -19 -10 -17 -16 3 -7 9 -11 15 -10 5 1 8 -7 5 -17 -4 -14 0
-20 11 -20 9 0 19 -7 22 -15 4 -8 11 -12 17 -8 6 3 7 1 3 -6 -4 -6 -12 -9 -17
-6 -9 6 -13 -8 -10 -32 1 -7 -3 -13 -10 -13 -7 0 -9 10 -4 28 6 25 5 26 -8 8
-10 -13 -16 -15 -21 -8 -4 7 -2 12 5 12 8 0 8 4 1 13 -10 12 -12 17 -12 39 0
6 -3 9 -6 6 -3 -4 -4 -8 -2 -11 2 -2 -3 -11 -11 -20 -9 -12 -10 -17 -2 -17 7
0 9 -5 5 -11 -9 -16 -24 10 -16 29 4 12 0 14 -20 9 -19 -5 -28 -2 -33 10 -3
10 -1 19 5 21 7 3 -2 13 -19 23 -17 10 -31 24 -31 31 0 9 3 9 12 0 16 -16 48
3 48 28 0 11 6 20 13 21 6 0 3 4 -8 9 -18 8 -18 9 -2 9 10 1 15 6 12 11 -3 6
-1 10 5 10 6 0 8 -12 5 -30 -4 -23 -2 -28 9 -24 8 3 12 13 9 22 -4 15 -3 15 6
2 9 -12 11 -11 11 8 0 12 7 25 15 28 8 4 15 10 15 16 0 5 -4 7 -8 4 -5 -3 -9
1 -9 9 0 8 6 15 14 15 7 0 13 5 13 11 0 5 -4 7 -10 4 -5 -3 -10 -1 -10 4 0 13
17 14 24 2z m142 1 c-6 -11 65 -9 82 1 7 5 12 3 12 -5 0 -9 3 -9 10 2 6 10 10
11 10 3 0 -7 7 -13 16 -13 11 0 14 -5 10 -16 -3 -9 -6 -17 -6 -19 0 -2 -9 -1
-20 2 -12 3 -20 0 -20 -6 0 -7 5 -9 10 -6 6 3 10 1 10 -4 0 -6 -6 -11 -14 -11
-7 0 -20 -7 -27 -17 -13 -15 -12 -15 8 -5 28 15 30 15 30 -2 0 -8 -5 -14 -10
-13 -5 1 -11 -6 -12 -15 -2 -11 2 -15 11 -11 15 6 28 39 19 52 -3 5 -1 12 5
16 5 3 10 1 10 -4 0 -6 5 -11 11 -11 5 0 7 5 4 10 -3 6 0 10 8 10 20 0 28 25
14 41 -10 10 -8 10 6 0 9 -8 15 -16 12 -19 -3 -3 0 -11 7 -19 8 -11 8 -17 -2
-26 -10 -10 -12 -9 -7 6 9 24 -6 21 -33 -7 -13 -15 -20 -31 -16 -41 4 -10 2
-14 -5 -9 -8 4 -9 -1 -5 -17 6 -21 5 -22 -6 -9 -7 9 -21 14 -31 12 -13 -3 -15
-7 -8 -16 8 -9 7 -13 -4 -14 -8 -1 -21 -3 -29 -4 -8 -1 -12 -8 -10 -17 2 -9
-2 -3 -9 13 -9 19 -17 25 -21 17 -5 -7 -16 -9 -28 -5 -14 4 -18 2 -14 -5 4 -6
2 -11 -3 -11 -16 0 -13 22 6 45 12 16 14 16 10 3 -8 -22 11 -34 26 -18 9 10 9
14 0 17 -7 3 -13 9 -13 14 0 6 4 7 10 4 6 -3 7 1 4 10 -5 12 -9 13 -20 4 -17
-14 -19 3 -4 31 8 16 8 18 -5 14 -10 -4 -15 0 -15 14 0 12 -9 22 -22 26 -21 6
-22 7 -5 17 12 7 22 7 30 0 7 -5 24 -14 38 -20 20 -7 26 -6 26 5 0 8 -6 13
-14 10 -17 -7 -44 4 -37 15 3 5 10 9 15 9 6 0 8 -4 5 -8z m234 -2 c-8 -5 -19
-10 -25 -10 -5 0 -3 5 5 10 8 5 20 10 25 10 6 0 3 -5 -5 -10z m70 6 c0 -2 -7
-7 -16 -10 -8 -3 -12 -2 -9 4 6 10 25 14 25 6z m87 -11 c0 -8 -4 -15 -9 -15
-4 0 -8 7 -8 15 0 8 4 15 8 15 5 0 9 -7 9 -15z m517 6 c4 -5 -3 -7 -14 -4 -23
6 -26 13 -6 13 8 0 17 -4 20 -9z m-308 -27 c1 -9 0 -13 -4 -10 -3 4 -7 14 -8
22 -1 9 0 13 4 10 3 -4 7 -14 8 -22z m-293 9 c-10 -3 -9 -8 3 -20 8 -8 12 -18
9 -21 -7 -7 -34 31 -29 40 3 5 11 8 17 7 9 0 9 -2 0 -6z m44 -4 c6 -6 9 -18 6
-25 -7 -20 -22 -17 -19 4 2 9 -2 20 -8 24 -7 5 -7 8 0 8 5 0 15 -5 21 -11z
m873 -16 c0 -21 -3 -24 -9 -14 -5 8 -7 20 -4 28 8 21 13 15 13 -14z m-1000 7
c0 -5 -2 -10 -4 -10 -3 0 -8 5 -11 10 -3 6 -1 10 4 10 6 0 11 -4 11 -10z m54
-13 c4 5 6 -5 4 -22 -2 -25 0 -30 17 -28 11 1 14 0 7 -3 -6 -3 -10 -9 -8 -13
3 -4 -6 -7 -19 -7 -28 0 -41 21 -19 30 12 4 13 10 4 26 -6 11 -15 18 -21 15
-5 -4 -7 -10 -4 -15 7 -11 -12 -60 -23 -60 -5 0 -9 7 -9 15 0 8 5 11 10 8 6
-4 7 4 4 19 -5 19 -2 28 9 32 9 3 12 11 8 18 -4 7 2 5 13 -5 11 -9 23 -14 27
-10z m123 -9 c1 -10 -3 -18 -9 -18 -6 0 -8 3 -5 7 4 3 2 11 -3 18 -7 8 -6 12
3 12 7 0 14 -9 14 -19z m84 5 c13 -17 13 -17 -6 -3 -11 8 -22 16 -24 17 -2 2
0 3 6 3 6 0 17 -8 24 -17z m706 2 c0 -8 -4 -12 -9 -9 -4 3 -8 9 -8 15 0 5 4 9
8 9 5 0 9 -7 9 -15z m-438 -15 c-10 -7 -49 -2 -49 5 0 2 14 3 31 3 17 -1 25
-4 18 -8z m575 -2 c-3 -4 -9 -8 -15 -8 -5 0 -9 4 -9 8 0 5 7 9 15 9 8 0 12 -4
9 -9z m-524 -14 c0 -2 -7 -4 -15 -4 -8 0 -15 4 -15 10 0 5 7 7 15 4 8 -4 15
-8 15 -10z m-837 -24 c-3 -11 -11 -16 -19 -13 -14 5 -19 25 -8 36 12 12 32 -5
27 -23z m-43 6 c0 -8 10 -22 22 -30 20 -14 18 -21 -5 -17 -5 1 -14 -12 -20
-29 -6 -17 -16 -29 -22 -27 -18 6 -16 42 4 64 20 21 20 21 -2 27 -18 5 -20 8
-7 16 21 14 30 12 30 -4z m676 -1 c-1 -8 -6 -18 -11 -22 -4 -5 -5 -2 0 6 6 11
4 13 -11 8 -18 -7 -18 -7 0 8 24 18 25 18 22 0z m191 -24 c0 -10 -7 -18 -14
-17 -20 3 -28 16 -9 16 9 0 14 5 11 10 -3 6 -2 10 4 10 5 0 9 -8 8 -19z m383
-10 c0 -4 -8 -7 -18 -7 -10 0 -19 5 -19 12 0 6 9 9 19 6 10 -2 18 -7 18 -11z
m-930 -1 c0 -5 -5 -10 -11 -10 -5 0 -7 5 -4 10 3 6 8 10 11 10 2 0 4 -4 4 -10z
m-60 -26 c0 -17 12 -18 28 -2 9 9 12 9 12 0 0 -7 -5 -12 -11 -12 -5 0 -7 -5
-4 -10 4 -6 -5 -5 -20 2 -22 10 -28 9 -36 -3 -6 -10 -9 -10 -9 -1 0 7 7 15 15
18 12 5 13 9 4 20 -10 12 -9 13 5 8 9 -3 16 -12 16 -20z m283 11 c-3 -9 -8
-14 -10 -11 -3 3 -2 9 2 15 9 16 15 13 8 -4z m217 0 c0 -8 -2 -15 -4 -15 -2 0
-6 7 -10 15 -3 8 -1 15 4 15 6 0 10 -7 10 -15z m-415 -17 c5 4 5 1 1 -5 -10
-18 -23 -16 -30 3 -5 13 -4 14 7 6 8 -7 18 -8 22 -4z m221 3 c-4 -5 0 -12 6
-14 8 -3 6 -6 -5 -6 -12 -1 -16 -6 -11 -13 5 -10 4 -10 -6 -1 -11 10 -11 15 0
28 14 16 25 21 16 6z m133 2 c-4 -22 2 -33 14 -27 6 4 9 3 4 -1 -4 -5 -18 -10
-30 -12 -15 -2 -18 0 -9 5 7 5 12 13 11 18 -2 13 0 24 6 24 3 0 4 -3 4 -7z
m858 1 c-3 -3 -12 -4 -19 -1 -8 3 -5 6 6 6 11 1 17 -2 13 -5z m-1137 -10 c0 0
-10 -9 -22 -20 -22 -19 -22 -19 -8 0 14 18 13 19 -2 13 -10 -3 -18 -2 -18 3 0
5 11 9 25 8 14 -1 25 -3 25 -4z m40 2 c0 -3 -4 -8 -10 -11 -5 -3 -10 -1 -10 4
0 6 5 11 10 11 6 0 10 -2 10 -4z m65 -8 c5 4 5 1 1 -6 -5 -9 -12 -9 -27 -2
-10 6 -19 13 -19 16 0 2 8 0 19 -5 10 -6 22 -7 26 -3z m-508 -30 c-3 -8 -6 -5
-6 6 -1 11 2 17 5 13 3 -3 4 -12 1 -19z m248 4 c-3 -3 -11 0 -18 7 -9 10 -8
11 6 5 10 -3 15 -9 12 -12z m-180 -12 c10 -11 16 -20 13 -20 -3 0 -13 9 -23
20 -10 11 -16 20 -13 20 3 0 13 -9 23 -20z m79 -1 c-3 -5 1 -9 8 -10 10 0 10
-2 1 -6 -7 -2 -20 2 -28 10 -20 21 -19 26 5 20 11 -3 17 -9 14 -14z m44 12
c11 -7 11 -9 -1 -14 -16 -6 -27 0 -27 15 0 10 11 10 28 -1z m152 -3 c0 -11
-12 -10 -30 2 -12 7 -10 9 8 7 12 0 22 -5 22 -9z m773 -3 c-3 -9 -8 -14 -10
-11 -3 3 -2 9 2 15 9 16 15 13 8 -4z m-1158 -5 c3 -5 -3 -10 -15 -10 -12 0
-18 5 -15 10 3 6 10 10 15 10 5 0 12 -4 15 -10z m307 -22 c-8 -8 -9 -4 -5 13
4 13 8 18 11 10 2 -7 -1 -18 -6 -23z m255 17 c0 -8 -4 -15 -9 -15 -10 0 -11
14 -1 23 9 10 10 9 10 -8z m-277 1 c0 -2 -7 -7 -16 -10 -8 -3 -12 -2 -9 4 6
10 25 14 25 6z m75 -6 c3 -5 -3 -10 -15 -10 -12 0 -18 5 -15 10 3 6 10 10 15
10 5 0 12 -4 15 -10z m402 -5 c0 -8 -4 -12 -9 -9 -5 3 -6 10 -3 15 9 13 12 11
12 -6z m-1151 -29 c9 -3 23 1 31 10 19 18 29 10 38 -31 5 -21 4 -26 -3 -16 -5
7 -16 11 -23 9 -8 -3 -20 1 -27 9 -17 17 -36 17 -26 1 4 -7 -2 -4 -14 6 -20
17 -27 15 -23 -7 1 -5 -4 -5 -10 -1 -7 4 -18 -1 -25 -10 -8 -12 -14 -14 -19
-6 -4 6 -4 14 0 18 6 7 11 8 37 11 6 0 8 4 4 8 -3 4 4 13 16 19 19 10 24 10
26 -1 2 -7 10 -16 18 -19z m180 -4 c3 -10 9 -10 24 -2 16 9 19 8 13 -6 -5 -13
-3 -15 8 -9 11 7 11 5 -1 -10 -14 -17 -13 -18 2 -12 10 3 20 2 23 -4 4 -5 10
-7 14 -5 4 3 8 -1 8 -9 0 -8 -5 -11 -11 -7 -12 7 -18 9 -42 11 -10 1 -14 7
-10 16 3 8 1 15 -4 15 -6 0 -10 -4 -10 -8 0 -5 -7 -9 -15 -9 -10 0 -12 4 -6
10 6 6 5 15 -4 24 -8 7 -11 21 -8 30 5 14 7 14 11 2 2 -7 5 -20 8 -27z m260
27 c7 -12 -15 -31 -28 -23 -4 3 -8 12 -8 20 0 17 26 19 36 3z m114 7 c0 -3 -4
-8 -10 -11 -5 -3 -10 -1 -10 4 0 6 5 11 10 11 6 0 10 -2 10 -4z m233 -8 c-6
-7 -9 -21 -8 -30 2 -10 0 -17 -3 -17 -22 3 -30 -3 -25 -23 4 -20 3 -21 -7 -5
-11 18 1 54 17 50 4 -2 9 2 9 7 1 6 2 15 3 20 0 6 6 10 12 10 8 0 8 -4 2 -12z
m292 2 c3 -5 -1 -10 -9 -10 -9 0 -16 5 -16 10 0 6 4 10 9 10 6 0 13 -4 16 -10z
m-442 -6 c7 -7 -2 -34 -12 -34 -4 0 -7 9 -8 20 -2 19 8 26 20 14z m251 -2 c3
-5 -1 -9 -9 -9 -8 0 -12 4 -9 9 3 4 7 8 9 8 2 0 6 -4 9 -8z m-360 -10 c2 -4
-4 -8 -14 -8 -10 0 -16 4 -14 8 3 4 9 8 14 8 5 0 11 -4 14 -8z m208 -4 c-14
-14 -44 -20 -36 -7 3 5 10 7 15 4 5 -4 9 -1 9 4 0 6 5 11 12 11 9 0 9 -3 0
-12z m-270 -29 c-12 -9 -22 -22 -22 -28 0 -14 -17 -14 -26 1 -4 7 -3 8 4 4 7
-4 13 -2 13 3 5 37 16 51 36 44 14 -6 13 -9 -5 -24z m213 21 c3 -5 -1 -10 -10
-10 -9 0 -13 5 -10 10 3 6 8 10 10 10 2 0 7 -4 10 -10z m169 -15 c-4 -8 -11
-15 -16 -15 -6 0 -5 6 2 15 7 8 14 15 16 15 2 0 1 -7 -2 -15z m727 -8 c-10 -9
-11 -8 -5 6 3 10 9 15 12 12 3 -3 0 -11 -7 -18z m-1564 -12 c-9 -21 10 -28 22
-8 5 10 13 14 18 9 4 -5 3 -11 -4 -13 -7 -2 -10 -10 -7 -18 3 -7 0 -16 -7 -21
-8 -4 -10 -3 -5 4 4 7 2 12 -3 12 -6 0 -11 -6 -11 -14 0 -8 -7 -17 -16 -20
-13 -5 -14 -4 -6 7 7 8 9 17 5 20 -3 4 0 7 8 7 9 0 5 8 -11 21 -16 14 -19 19
-7 15 9 -3 17 -1 17 4 0 6 3 10 6 10 3 0 4 -7 1 -15z m379 -13 c-14 -14 -17
-14 -14 -2 3 17 20 31 27 24 3 -2 -3 -12 -13 -22z m659 19 c3 -5 2 -12 -3 -15
-5 -3 -9 1 -9 9 0 17 3 19 12 6z m723 -16 c-3 -3 -9 2 -12 12 -6 14 -5 15 5 6
7 -7 10 -15 7 -18z m-2008 -11 c0 -14 4 -23 10 -19 6 3 10 1 10 -4 0 -6 -5
-11 -11 -11 -6 0 -8 -9 -4 -20 5 -15 3 -18 -9 -14 -11 4 -15 19 -14 50 1 46
18 63 18 18z m35 16 c-3 -5 -12 -10 -18 -10 -7 0 -6 4 3 10 19 12 23 12 15 0z
m85 -28 c0 -1 -8 2 -19 7 -10 6 -21 7 -25 3 -4 -3 -4 1 -1 10 6 15 8 15 26 0
10 -9 19 -18 19 -20z m605 18 c-4 -6 -11 -7 -17 -4 -7 5 -9 2 -6 -8 4 -8 0
-15 -7 -15 -10 0 -11 5 -4 19 5 10 17 18 25 18 8 0 12 -5 9 -10z m320 0 c3 -6
-1 -7 -9 -4 -18 7 -21 14 -7 14 6 0 13 -4 16 -10z m75 -11 c0 -5 -4 -9 -8 -9
-5 0 -9 7 -9 15 0 8 4 12 9 9 4 -3 8 -9 8 -15z m-330 7 c0 -3 -4 -8 -10 -11
-5 -3 -10 -1 -10 4 0 6 5 11 10 11 6 0 10 -2 10 -4z m-739 -35 c-9 -16 -1 -44
13 -42 24 3 28 0 16 -14 -7 -8 -20 -14 -29 -14 -13 1 -13 2 2 6 9 2 17 9 17
14 0 6 -4 7 -10 4 -5 -3 -18 -1 -27 4 -10 6 -13 11 -7 11 6 0 10 10 10 23 -3
28 3 39 15 32 5 -4 5 -13 0 -24z m277 4 c-3 -3 -9 2 -12 12 -6 14 -5 15 5 6 7
-7 10 -15 7 -18z m109 5 c1 -16 -1 -17 -12 -7 -11 10 -8 19 10 27 1 0 1 -9 2
-20z m166 -30 c-3 -3 -10 3 -17 13 -7 9 -19 17 -25 17 -7 0 -9 5 -5 11 4 7 14
3 29 -12 12 -13 20 -26 18 -29z m428 27 c-8 -8 -14 -7 -23 2 -11 10 -9 11 6 5
15 -6 17 -4 11 6 -6 9 -4 11 4 5 9 -5 10 -10 2 -18z m989 2 c0 -5 -4 -9 -8 -9
-5 0 -9 7 -9 15 0 8 4 12 9 9 4 -3 8 -9 8 -15z m-1400 7 c0 -3 -4 -8 -10 -11
-5 -3 -10 -1 -10 4 0 6 5 11 10 11 6 0 10 -2 10 -4z m1266 -8 c4 -7 3 -8 -5
-4 -6 4 -14 0 -17 -8 -3 -9 -11 -16 -17 -16 -5 0 -2 9 8 20 21 23 22 24 31 8z
m234 2 c0 -5 -8 -10 -17 -10 -15 0 -16 2 -3 10 19 12 20 12 20 0z m-2020 -4
c0 -2 -8 -10 -17 -17 -16 -13 -17 -12 -4 4 13 16 21 21 21 13z m288 -9 c22
-13 22 -13 -14 -26 -31 -11 -38 -11 -53 3 -10 9 -21 13 -24 9 -4 -3 -7 -1 -7
5 0 16 15 15 32 -1 7 -7 19 -12 26 -11 6 1 18 2 25 3 7 1 4 7 -7 16 -24 18
-10 19 22 2z m116 -2 c3 -8 1 -15 -4 -15 -6 0 -10 7 -10 15 0 8 2 15 4 15 2 0
6 -7 10 -15z m1116 5 c0 -5 -4 -10 -10 -10 -5 0 -10 5 -10 10 0 6 5 10 10 10
6 0 10 -4 10 -10z m53 -5 c-3 -9 -8 -14 -10 -11 -3 3 -2 9 2 15 9 16 15 13 8
-4z m60 3 c-4 -7 -8 -16 -8 -20 0 -3 -3 -9 -7 -12 -5 -3 -6 -3 -3 1 3 3 -1 13
-8 21 -8 11 -8 14 0 9 6 -4 14 -3 18 3 3 5 8 10 11 10 3 0 2 -6 -3 -12z
m-1258 -16 c-3 -3 -11 0 -18 7 -9 10 -8 11 6 5 10 -3 15 -9 12 -12z m172 0
c-10 -10 -14 -22 -10 -25 3 -4 1 -7 -5 -7 -18 0 -14 21 6 36 24 19 28 17 9 -4z
m228 -4 c5 4 5 2 1 -5 -9 -16 -33 -6 -33 14 0 14 1 14 12 -1 7 -8 16 -12 20
-8z m-87 -12 c-1 -14 -5 -23 -9 -20 -7 4 0 44 7 44 2 0 3 -11 2 -24z m-318 -8
c0 -5 4 -7 9 -3 5 3 12 1 15 -4 9 -14 -18 -7 -45 11 -24 16 -24 17 -1 11 12
-3 22 -10 22 -15z m93 -6 c-5 -15 -3 -14 18 3 l24 20 -19 -22 c-21 -25 -35
-22 -33 7 1 10 5 17 9 14 4 -3 4 -12 1 -22z m974 11 c0 -6 -6 -14 -14 -17 -8
-3 -13 2 -13 12 0 12 -8 8 -30 -16 -24 -28 -29 -30 -27 -13 0 11 4 18 8 16 3
-3 14 4 24 15 19 21 52 23 52 3z m-1278 -12 c19 -19 19 -20 1 -18 -11 1 -17 3
-15 6 3 2 0 10 -6 18 -17 20 -2 16 20 -6z m941 0 c0 -4 -6 -8 -13 -8 -8 0 -14
6 -14 13 0 7 6 10 14 7 7 -3 13 -8 13 -12z m135 10 c3 -5 2 -12 -3 -15 -5 -3
-9 1 -9 9 0 17 3 19 12 6z m-607 -23 c10 -12 10 -18 1 -24 -7 -4 -9 -3 -5 4 3
6 2 13 -4 17 -5 3 -10 11 -10 17 0 6 1 9 3 7 1 -2 8 -11 15 -21z m672 18 c0
-2 -7 -7 -16 -10 -8 -3 -12 -2 -9 4 6 10 25 14 25 6z m-1050 -18 c0 -4 -9 -8
-20 -8 -11 0 -20 4 -20 8 0 4 9 8 20 8 11 0 20 -4 20 -8z m1250 8 c0 -2 -10
-11 -23 -19 -19 -12 -24 -13 -24 -2 0 8 4 12 8 9 4 -2 10 0 14 6 6 9 25 14 25
6z m-374 -18 c4 -7 3 -8 -4 -4 -7 4 -12 2 -12 -5 0 -7 -3 -10 -6 -6 -6 5 3 27
11 27 2 0 7 -5 11 -12z m199 2 c-3 -5 -1 -10 6 -10 7 0 10 -3 6 -6 -9 -9 -28
6 -22 17 4 5 8 9 11 9 3 0 2 -4 -1 -10z m79 -6 c3 -8 2 -12 -4 -9 -6 3 -10 10
-10 16 0 14 7 11 14 -7z m-1340 -6 c-4 -5 -9 -7 -12 -4 -3 3 -10 2 -17 -4 -6
-5 -22 -6 -36 -2 -22 6 -21 7 11 12 51 8 60 8 54 -2z m476 8 c0 -3 -4 -8 -10
-11 -5 -3 -10 -1 -10 4 0 6 5 11 10 11 6 0 10 -2 10 -4z m257 -15 c0 -11 -5
-18 -9 -15 -4 3 -5 11 -1 19 7 21 12 19 10 -4z m730 13 c-3 -3 -12 -4 -19 -1
-8 3 -5 6 6 6 11 1 17 -2 13 -5z m-1422 -14 c3 -5 1 -10 -4 -10 -6 0 -11 5
-11 10 0 6 2 10 4 10 3 0 8 -4 11 -10z m480 -9 c-3 -6 -11 -8 -17 -5 -6 4 -5
9 3 15 16 10 23 4 14 -10z m99 7 c-3 -4 -11 -5 -19 -1 -21 7 -19 12 4 10 11 0
18 -5 15 -9z m176 2 c0 -5 -2 -10 -4 -10 -3 0 -8 5 -11 10 -3 6 -1 10 4 10 6
0 11 -4 11 -10z m-703 -15 c0 -8 -6 -16 -14 -19 -11 -4 -11 -1 -3 14 13 24 17
25 17 5z m191 -23 c15 11 15 11 5 -3 -7 -9 -11 -18 -8 -21 3 -2 -1 -5 -8 -5
-7 0 -13 12 -14 26 0 16 1 19 4 8 4 -15 7 -16 21 -5z m632 8 c8 -5 11 -10 5
-10 -5 0 -17 5 -25 10 -8 5 -10 10 -5 10 6 0 17 -5 25 -10z m22 -22 c-8 -8 -9
-4 -5 13 4 13 8 18 11 10 2 -7 -1 -18 -6 -23z m-704 -2 c2 -10 -2 -15 -10 -14
-17 4 -28 20 -21 31 8 13 28 2 31 -17z m1237 14 c3 -5 1 -10 -4 -10 -6 0 -11
5 -11 10 0 6 2 10 4 10 3 0 8 -4 11 -10z m-1101 -12 c-3 -4 -12 -8 -20 -8 -8
0 -14 4 -14 8 0 4 9 8 19 8 11 0 17 -4 15 -8z m521 -8 c-3 -5 -12 -10 -18 -10
-7 0 -6 4 3 10 19 12 23 12 15 0z m125 -30 c0 -5 -7 -7 -15 -4 -8 4 -15 8 -15
10 0 2 7 4 15 4 8 0 15 -4 15 -10z m30 6 c0 -3 -4 -8 -10 -11 -5 -3 -10 -1
-10 4 0 6 5 11 10 11 6 0 10 -2 10 -4z m-510 -42 c0 -2 -9 -4 -21 -4 -11 0
-18 4 -14 10 5 8 35 3 35 -6z m75 6 c10 8 15 8 21 -1 4 -7 3 -9 -3 -6 -13 8
-36 -17 -25 -28 4 -5 1 -5 -5 -1 -7 4 -13 17 -12 29 0 12 3 16 6 9 4 -9 8 -10
18 -2z m80 -11 c-2 -10 0 -21 6 -24 5 -4 9 -2 9 3 0 5 7 9 15 9 21 0 4 -16
-23 -22 -24 -4 -39 10 -22 20 8 5 8 11 1 19 -8 9 -7 13 3 13 8 0 13 -8 11 -18z
m50 11 c3 -5 1 -10 -4 -10 -6 0 -11 5 -11 10 0 6 2 10 4 10 3 0 8 -4 11 -10z
m-85 -16 c0 -3 -6 -12 -14 -19 -12 -12 -15 -12 -19 0 -3 7 -1 16 6 19 17 7 27
7 27 0z"/>
<path d="M7053 7855 c-7 -16 -7 -25 -1 -25 6 0 8 -7 5 -15 -10 -25 10 -26 29
0 10 13 21 22 26 19 4 -3 8 0 8 5 0 6 -11 11 -25 11 -18 0 -23 4 -19 15 10 25
-10 16 -23 -10z m37 -21 c0 -2 -7 -4 -15 -4 -8 0 -15 4 -15 10 0 5 7 7 15 4 8
-4 15 -8 15 -10z"/>
<path d="M6924 7826 c-10 -21 -9 -24 5 -19 9 3 5 -4 -9 -16 -18 -15 -21 -19
-8 -17 25 3 33 14 33 47 0 35 -6 37 -21 5z"/>
<path d="M6672 7668 c-16 -16 -15 -28 2 -28 8 0 16 -4 18 -9 2 -4 14 -11 28
-15 25 -6 25 -6 3 5 -13 7 -24 16 -24 21 -1 4 -2 12 -3 17 -2 17 -12 21 -24 9z"/>
<path d="M6646 7605 c-3 -8 -1 -17 4 -20 5 -3 7 -13 4 -23 -5 -15 -4 -15 6 1
6 9 15 15 21 12 16 -10 10 4 -10 24 -16 16 -21 17 -25 6z"/>
<path d="M6738 7598 c-22 -23 -22 -28 -1 -28 9 0 13 3 10 7 -4 3 -2 12 5 20
17 21 5 22 -14 1z"/>
<path d="M6806 7593 c-6 -14 -5 -15 5 -6 7 7 10 15 7 18 -3 3 -9 -2 -12 -12z"/>
<path d="M6831 7583 c-1 -16 5 -23 17 -23 14 0 15 -2 2 -10 -10 -6 -11 -10 -2
-10 6 0 15 0 19 0 4 0 8 6 9 14 1 9 -1 15 -4 15 -20 -3 -31 3 -35 19 -4 13 -5
11 -6 -5z"/>
<path d="M6760 7577 c0 -19 16 -31 24 -18 3 5 -1 14 -9 21 -12 10 -15 10 -15
-3z"/>
<path d="M6961 7571 c-11 -7 -9 -10 9 -16 l22 -7 -21 -21 -21 -22 -25 28 c-31
32 -33 33 -31 7 0 -11 4 -20 9 -20 4 0 21 -7 37 -15 17 -9 31 -13 31 -10 1 3
2 9 3 15 0 5 6 14 12 20 12 12 8 50 -5 50 -3 0 -12 -4 -20 -9z"/>
<path d="M6680 7549 c0 -5 3 -8 8 -7 14 3 42 -14 36 -23 -3 -5 2 -6 11 -2 13
5 14 7 3 14 -8 6 -1 8 20 6 17 -2 35 -7 40 -11 4 -4 3 -7 -3 -6 -21 5 -35 -1
-35 -13 0 -7 8 -13 18 -14 9 -1 29 -4 44 -7 16 -2 30 -1 33 4 2 4 -6 7 -18 7
-40 1 -48 3 -43 12 3 5 14 8 24 6 9 -1 11 0 4 2 -8 3 -11 10 -9 17 4 10 -9 13
-48 11 -30 -1 -52 1 -50 5 2 3 -5 7 -16 7 -10 1 -19 -2 -19 -8z"/>
<path d="M6945 7540 c-3 -6 1 -7 9 -4 18 7 21 14 7 14 -6 0 -13 -4 -16 -10z"/>
<path d="M6720 7490 c0 -5 5 -10 10 -10 6 0 10 5 10 10 0 6 -4 10 -10 10 -5 0
-10 -4 -10 -10z"/>
<path d="M7015 7481 c-3 -6 3 -9 14 -8 11 0 17 5 15 9 -7 11 -22 10 -29 -1z"/>
<path d="M6702 7457 c-7 -8 -8 -18 -4 -23 4 -5 -3 -1 -14 9 -19 15 -22 16 -27
3 -4 -10 -1 -13 9 -9 7 3 14 1 14 -5 0 -5 9 -12 20 -15 13 -3 21 1 26 15 8 26
-9 44 -24 25z"/>
<path d="M6740 7453 c0 -17 4 -21 17 -16 11 4 14 3 9 -5 -5 -8 -1 -10 10 -5
14 5 16 2 12 -14 -4 -16 -1 -20 16 -19 12 1 20 -4 18 -12 -1 -8 2 -11 8 -7 8
5 8 11 1 19 -7 9 -7 16 0 23 14 14 3 33 -19 32 -15 -1 -15 -2 1 -6 9 -2 17 -9
17 -14 0 -12 -72 18 -82 34 -5 8 -8 4 -8 -10z"/>
<path d="M6643 7408 c-13 -6 -23 -18 -23 -27 1 -14 2 -14 14 2 13 16 32 25 23
10 -3 -5 5 -8 18 -8 13 0 21 3 18 8 -2 4 -11 7 -19 7 -8 0 -12 5 -9 10 7 12 7
12 -22 -2z"/>
<path d="M6710 7377 c0 -10 8 -17 18 -17 9 0 13 4 7 8 -5 4 -13 11 -17 16 -5
5 -8 2 -8 -7z"/>
<path d="M6630 7330 c0 -5 5 -10 11 -10 5 0 7 5 4 10 -3 6 -8 10 -11 10 -2 0
-4 -4 -4 -10z"/>
<path d="M6575 7161 c-3 -5 0 -13 6 -17 7 -4 9 -3 5 4 -3 5 0 13 6 15 9 4 10
6 1 6 -6 1 -14 -3 -18 -8z"/>
<path d="M6603 7095 c0 -8 4 -12 9 -9 5 3 6 10 3 15 -9 13 -12 11 -12 -6z"/>
<path d="M6857 7094 c-13 -14 -7 -20 24 -22 20 -2 28 1 24 8 -4 6 -13 9 -20 6
-8 -3 -15 0 -17 5 -2 6 -7 7 -11 3z"/>
<path d="M6520 7080 c-13 -8 -12 -10 3 -10 9 0 17 5 17 10 0 12 -1 12 -20 0z"/>
<path d="M6760 6994 c0 -8 5 -12 10 -9 6 4 8 11 5 16 -9 14 -15 11 -15 -7z"/>
<path d="M6470 6996 c0 -2 8 -10 18 -17 15 -13 16 -12 3 4 -13 16 -21 21 -21
13z"/>
<path d="M6800 6984 c0 -5 -10 -10 -22 -11 -11 -1 -25 -8 -29 -15 -15 -22 -10
-30 7 -13 9 9 22 14 29 11 13 -5 30 22 20 32 -3 3 -5 1 -5 -4z"/>
<path d="M6680 6954 c-10 -11 -10 -17 -2 -25 7 -5 10 -6 7 -3 -3 4 3 12 12 19
10 7 12 14 6 18 -6 4 -16 0 -23 -9z"/>
<path d="M6865 6910 c-3 -5 1 -10 10 -10 9 0 13 5 10 10 -3 6 -8 10 -10 10 -2
0 -7 -4 -10 -10z"/>
<path d="M6427 6749 c7 -7 15 -10 18 -7 3 3 -2 9 -12 12 -14 6 -15 5 -6 -5z"/>
<path d="M6460 6750 c0 -4 7 -7 15 -6 23 3 26 12 5 13 -11 1 -20 -2 -20 -7z"/>
<path d="M6528 6733 c6 -2 12 -11 12 -19 0 -9 -4 -13 -9 -9 -11 6 -6 -34 5
-44 4 -3 4 2 1 12 -5 14 -2 16 18 11 18 -4 23 -2 21 10 -2 17 -35 46 -51 45
-5 0 -4 -3 3 -6z m42 -27 c0 -3 -4 -8 -10 -11 -5 -3 -10 -1 -10 4 0 6 5 11 10
11 6 0 10 -2 10 -4z"/>
<path d="M6420 6716 c0 -2 7 -6 15 -10 8 -3 15 -1 15 4 0 6 -7 10 -15 10 -8 0
-15 -2 -15 -4z"/>
<path d="M6410 6690 c0 -5 5 -10 11 -10 5 0 7 5 4 10 -3 6 -8 10 -11 10 -2 0
-4 -4 -4 -10z"/>
<path d="M6495 6691 c-3 -5 -1 -12 5 -16 5 -3 10 1 10 9 0 18 -6 21 -15 7z"/>
<path d="M6445 6680 c3 -4 -3 -14 -13 -23 -18 -17 -35 -12 -45 13 -5 10 -6 9
-4 -5 1 -11 -3 -27 -8 -35 -8 -13 -7 -13 8 -1 23 19 32 7 15 -18 -8 -12 -17
-18 -20 -16 -3 3 -8 -1 -11 -10 -8 -18 4 -20 22 -2 10 10 11 8 5 -8 -4 -11
-13 -24 -21 -28 -7 -4 -13 -13 -13 -18 0 -6 7 -3 16 5 8 9 20 16 26 16 5 0 8
7 4 15 -5 14 5 20 27 16 5 -1 6 3 2 8 -3 6 -12 8 -20 4 -19 -7 -19 11 -1 26
11 9 18 7 33 -13 l19 -24 13 29 c7 16 17 27 23 26 6 -1 12 3 15 9 2 7 -7 11
-26 10 -23 0 -27 -3 -18 -14 8 -10 7 -16 -4 -23 -9 -6 -18 -3 -26 8 -11 14 -9
20 7 38 16 17 17 22 6 22 -8 0 -13 -3 -11 -7z"/>
<path d="M6610 6653 c0 -6 4 -14 9 -17 4 -3 6 -18 3 -33 l-5 -28 22 22 c20 21
20 59 -1 47 -6 -4 -14 0 -19 7 -6 9 -9 10 -9 2z"/>
<path d="M6587 6621 c-2 -10 1 -18 9 -18 18 0 26 24 9 30 -7 3 -15 -2 -18 -12z"/>
<path d="M6523 6613 c-3 -7 -10 -10 -16 -6 -6 4 -7 1 -2 -6 5 -9 10 -10 18 -2
6 6 19 11 28 11 10 0 20 3 22 8 3 4 -6 7 -20 7 -14 0 -28 -6 -30 -12z"/>
<path d="M6535 6591 c-3 -5 0 -13 6 -17 8 -5 9 -3 4 6 -6 10 -4 12 9 7 10 -4
15 -3 11 3 -8 13 -22 13 -30 1z"/>
<path d="M6679 6585 c-1 -3 -3 -9 -4 -15 -1 -5 -3 -16 -4 -22 -1 -10 -3 -10
-10 0 -7 11 -9 11 -14 -1 -4 -10 3 -17 20 -22 14 -3 28 -4 31 0 3 3 0 5 -5 5
-7 0 -9 12 -7 30 3 17 3 30 0 30 -3 0 -7 -2 -7 -5z"/>
<path d="M6486 6561 c-4 -5 -2 -12 3 -15 5 -4 12 -2 15 3 4 5 2 12 -3 15 -5 4
-12 2 -15 -3z"/>
<path d="M6331 6537 c-13 -21 -12 -21 5 -5 10 10 16 20 13 22 -3 3 -11 -5 -18
-17z"/>
<path d="M6430 6550 c-12 -8 -11 -10 8 -10 12 0 22 5 22 10 0 13 -11 13 -30 0z"/>
<path d="M6565 6530 c-4 -6 -11 -7 -17 -4 -6 4 -8 2 -4 -4 3 -6 -2 -16 -11
-21 -17 -10 -17 -12 0 -21 9 -6 17 -18 17 -25 0 -16 12 -20 23 -9 4 4 -3 15
-14 25 -12 10 -18 23 -14 29 5 8 13 6 25 -5 17 -16 18 -16 15 2 -2 10 -4 20
-5 23 -1 3 -2 8 -1 13 2 10 -7 9 -14 -3z"/>
<path d="M6450 6521 c0 -5 -9 -7 -20 -4 -27 7 -44 -35 -24 -58 8 -9 12 -18 9
-21 -3 -3 1 -8 10 -11 11 -5 15 0 15 18 0 19 -4 23 -17 18 -15 -5 -16 -3 -5 8
14 16 16 33 2 24 -5 -3 -10 -1 -10 5 0 17 35 7 36 -10 1 -8 3 -17 4 -20 1 -3
3 -15 4 -27 4 -32 11 -36 36 -23 12 6 19 14 16 17 -3 3 -12 0 -20 -6 -13 -11
-15 -9 -11 8 2 12 -1 21 -6 21 -6 0 -8 4 -5 8 2 4 1 14 -4 22 -5 9 -5 19 2 27
7 9 7 13 -1 13 -6 0 -11 -4 -11 -9z"/>
<path d="M6363 6485 c0 -8 4 -12 9 -9 5 3 6 10 3 15 -9 13 -12 11 -12 -6z"/>
<path d="M6480 6488 c0 -4 4 -8 9 -8 6 0 12 4 15 8 3 5 -1 9 -9 9 -8 0 -15 -4
-15 -9z"/>
<path d="M6295 6448 c8 -20 45 -31 45 -13 0 8 -5 17 -12 21 -7 4 -8 3 -4 -4
10 -16 -7 -15 -23 1 -10 10 -11 9 -6 -5z"/>
<path d="M6394 6435 c3 -8 0 -15 -6 -15 -6 0 -8 -3 -5 -7 4 -3 2 -12 -4 -19
-6 -8 -6 -14 0 -18 13 -8 21 6 26 44 2 16 -1 30 -7 30 -5 0 -8 -7 -4 -15z"/>
<path d="M6530 6430 c-16 -11 -15 -11 18 -15 18 -2 20 0 11 11 -13 16 -10 16
-29 4z"/>
<path d="M6830 6540 c0 -14 15 -19 29 -11 9 6 7 10 -8 14 -12 3 -21 1 -21 -3z"/>
<path d="M6761 6406 c-8 -9 -8 -16 -2 -20 5 -4 12 -2 16 3 3 6 12 8 20 4 22
-8 18 5 -4 16 -14 8 -22 7 -30 -3z"/>
<path d="M7100 6600 c-13 -8 -12 -10 3 -10 9 0 17 5 17 10 0 12 -1 12 -20 0z"/>
<path d="M7063 6593 c-7 -2 -13 -11 -13 -19 0 -8 -4 -14 -10 -14 -5 0 -10 -9
-10 -20 0 -11 6 -20 13 -20 8 0 7 -4 -3 -11 -13 -9 -13 -10 0 -6 9 2 14 13 12
27 -3 15 0 20 9 15 8 -5 10 -4 5 3 -4 7 -1 12 8 12 9 0 16 5 16 11 0 6 -7 8
-16 5 -14 -5 -15 -4 -4 9 13 16 13 16 -7 8z"/>
<path d="M7070 6491 c0 -11 -4 -23 -10 -26 -6 -3 -7 1 -4 10 5 11 2 14 -10 9
-21 -8 -20 -20 0 -28 19 -7 17 -8 33 21 7 14 8 24 1 28 -5 3 -10 -3 -10 -14z"/>
<path d="M6917 6482 c-10 -10 -17 -24 -17 -32 0 -7 10 -1 21 14 24 31 21 45
-4 18z"/>
<path d="M6950 8030 c0 -5 5 -10 11 -10 5 0 7 5 4 10 -3 6 -8 10 -11 10 -2 0
-4 -4 -4 -10z"/>
<path d="M7995 8010 c3 -5 8 -10 11 -10 2 0 4 5 4 10 0 6 -5 10 -11 10 -5 0
-7 -4 -4 -10z"/>
<path d="M6885 8000 c-3 -6 1 -7 9 -4 18 7 21 14 7 14 -6 0 -13 -4 -16 -10z"/>
<path d="M8147 7949 c7 -7 15 -10 18 -7 3 3 -2 9 -12 12 -14 6 -15 5 -6 -5z"/>
<path d="M5386 7925 c-13 -14 -34 -25 -48 -25 -14 0 -34 -12 -48 -30 -14 -16
-31 -29 -38 -30 -28 0 -72 -31 -72 -50 0 -34 41 -51 112 -48 l63 3 1 40 0 40
87 -4 c85 -3 87 -2 87 19 0 13 -16 43 -36 66 -41 51 -73 57 -108 19z m87 -40
l28 -35 -49 0 c-43 0 -48 2 -47 23 1 56 29 61 68 12z m-197 -90 c8 -20 31 -19
43 3 9 15 10 15 11 -5 0 -21 -5 -23 -47 -23 -60 0 -84 13 -57 29 26 15 44 14
50 -4z"/>
<path d="M8298 7753 c7 -3 16 -2 19 1 4 3 -2 6 -13 5 -11 0 -14 -3 -6 -6z"/>
<path d="M8340 7730 c0 -5 5 -10 11 -10 5 0 7 5 4 10 -3 6 -8 10 -11 10 -2 0
-4 -4 -4 -10z"/>
<path d="M8880 7276 c0 -17 -2 -18 -10 -6 -8 13 -10 13 -10 -1 0 -9 7 -19 15
-23 10 -3 15 1 15 12 0 10 5 23 10 28 7 7 6 11 -5 11 -8 0 -15 -9 -15 -21z"/>
<path d="M8965 7201 c3 -5 0 -11 -7 -13 -7 -3 -8 -7 -3 -10 6 -3 15 0 22 7 10
10 9 14 -3 19 -8 3 -13 2 -9 -3z"/>
<path d="M8973 7073 c4 -3 1 -13 -6 -22 -11 -14 -10 -14 5 -2 16 12 16 31 1
31 -4 0 -3 -3 0 -7z"/>
<path d="M4160 7053 c0 -7 -3 -12 -7 -12 -31 5 -52 -33 -32 -57 5 -6 16 -34
24 -61 15 -49 40 -67 42 -31 2 17 0 18 -14 6 -11 -8 -14 -8 -10 -1 4 6 3 14
-3 18 -14 8 -3 25 16 25 10 0 12 -5 8 -12 -6 -10 -5 -10 8 -1 8 7 18 9 22 5 4
-4 7 -2 6 3 -5 26 12 51 33 49 12 -1 29 -3 37 -4 10 -1 11 -3 3 -7 -13 -5 -18
-33 -7 -33 4 0 12 7 19 17 8 11 14 13 19 5 4 -7 2 -12 -5 -12 -8 0 -7 -5 2
-17 12 -16 12 -17 -2 -6 -9 7 -19 9 -23 5 -4 -4 -15 2 -23 13 -9 12 -13 14
-11 5 3 -8 14 -20 26 -26 28 -14 42 -27 20 -19 -11 4 -20 -1 -28 -16 -11 -19
-10 -21 4 -16 9 4 16 2 16 -3 0 -6 -4 -10 -10 -10 -5 0 -10 -12 -11 -27 -1
-27 -1 -27 -8 -4 -6 23 -7 23 -21 5 -13 -16 -13 -17 0 -9 9 5 8 0 -4 -13 -11
-12 -14 -22 -8 -22 7 0 12 -5 12 -11 0 -6 -7 -9 -15 -6 -8 4 -17 2 -20 -3 -4
-6 2 -10 12 -11 10 0 13 -3 6 -5 -7 -3 -10 -11 -7 -18 3 -7 -2 -13 -10 -13 -8
0 -12 7 -9 16 4 11 1 10 -9 -3 -9 -12 -22 -17 -31 -13 -9 3 -19 2 -22 -3 -8
-13 -35 -13 -35 0 0 6 7 10 15 10 8 0 15 4 15 10 0 5 -15 9 -33 8 -19 -1 -39
2 -44 5 -15 9 -31 -14 -28 -41 1 -13 -4 -26 -12 -29 -8 -3 -10 -10 -5 -17 5
-6 8 -19 7 -28 -3 -18 21 -30 63 -33 14 0 21 4 18 11 -6 15 32 10 47 -5 6 -6
1 -8 -14 -5 -17 4 -20 3 -10 -4 7 -5 10 -15 7 -21 -4 -6 -1 -11 7 -11 8 0 18
-7 21 -16 3 -9 11 -12 18 -8 9 5 8 2 -1 -9 -8 -10 -11 -20 -7 -24 3 -3 6 -1 6
5 0 7 5 12 11 12 6 0 9 -7 5 -15 -8 -21 -1 -19 29 9 15 14 24 30 20 36 -3 5 1
13 10 16 14 6 14 8 -1 25 -10 11 -14 22 -11 26 4 3 7 1 7 -6 0 -8 7 -11 15 -7
8 3 15 1 15 -5 0 -6 5 -7 12 -3 8 5 9 0 6 -14 -7 -25 7 -20 22 8 8 15 4 22
-23 39 -17 11 -26 21 -18 21 8 0 11 3 8 7 -4 3 -2 12 4 20 9 9 8 13 0 13 -6 0
-11 4 -11 9 0 5 8 7 18 4 10 -2 25 3 33 13 8 10 9 15 3 11 -18 -11 -33 15 -23
38 9 18 9 18 5 -2 -3 -16 1 -23 11 -23 10 0 14 6 10 20 -3 10 0 18 5 17 5 -1
15 7 21 18 7 11 15 22 19 25 12 9 17 59 7 62 -6 2 -11 13 -11 25 -1 11 -7 19
-14 16 -7 -2 -14 0 -18 5 -5 8 1 10 37 13 29 3 102 -12 112 -23 7 -8 6 -9 -2
-4 -7 4 -13 2 -13 -5 0 -9 -4 -8 -15 1 -8 6 -20 10 -27 7 -8 -4 -7 -6 5 -6 9
-1 17 -6 17 -12 0 -6 8 -8 19 -4 11 3 22 1 26 -5 5 -8 10 -8 20 0 10 8 15 8
21 -1 4 -8 3 -9 -4 -5 -7 4 -12 2 -12 -3 0 -14 17 -14 25 -1 4 6 10 8 15 5 5
-3 14 4 20 15 7 14 7 20 0 20 -6 0 -6 7 2 19 25 41 -48 77 -77 37 -13 -18 -14
-19 -8 -2 4 13 3 17 -5 12 -7 -4 -12 -16 -12 -27 0 -10 -7 -19 -15 -19 -8 0
-15 5 -15 11 0 5 5 7 10 4 6 -3 10 2 10 12 -1 15 -3 15 -21 -6 -16 -19 -22
-22 -32 -12 -9 10 -8 14 6 22 9 6 17 15 17 22 0 8 -3 8 -9 -1 -6 -11 -17 -11
-46 -3 -44 12 -57 7 -48 -16 6 -15 7 -14 13 2 6 17 7 17 12 -3 4 -15 2 -22 -8
-22 -16 0 -54 35 -54 50 0 6 -7 10 -15 10 -8 0 -12 -6 -9 -14 4 -9 -3 -13 -20
-13 -14 0 -27 6 -30 14 -3 8 -10 12 -15 8 -5 -3 -13 0 -17 6 -4 7 -3 9 4 5 6
-3 13 -2 16 3 3 5 -3 11 -14 14 -11 3 -20 0 -20 -6 0 -6 -7 -2 -15 9 -8 11
-15 14 -15 7z m20 -44 c-11 -8 -12 -12 -2 -16 15 -6 16 -33 0 -33 -6 0 -8 3
-5 7 4 3 2 12 -4 19 -12 15 -4 34 14 34 7 0 6 -4 -3 -11z m230 -23 c0 -11 -19
-15 -25 -6 -3 5 1 10 9 10 9 0 16 -2 16 -4z m174 -4 c2 -4 -5 -9 -17 -9 -17
-2 -19 0 -7 7 18 12 18 12 24 2z m-49 -32 c3 -6 -1 -7 -9 -4 -18 7 -21 14 -7
14 6 0 13 -4 16 -10z m-159 -72 c19 -23 19 -23 -2 -5 -11 9 -24 14 -27 10 -4
-3 -7 -1 -7 5 0 19 15 14 36 -10z m-19 -70 c-3 -8 -6 -5 -6 6 -1 11 2 17 5 13
3 -3 4 -12 1 -19z m-62 -24 c-3 -22 0 -43 7 -53 10 -13 10 -14 -2 -4 -9 9 -17
9 -26 2 -10 -8 -12 -6 -11 10 0 11 5 17 9 15 4 -3 9 1 9 8 1 7 2 18 4 23 1 6
3 16 3 23 1 6 5 12 8 12 3 0 3 -16 -1 -36z m-195 -66 c0 -5 -9 -7 -20 -3 -16
5 -19 3 -13 -12 6 -15 5 -16 -9 -3 -13 12 -15 27 -9 47 2 7 51 -22 51 -29z
m74 -19 c-2 -4 2 -10 8 -13 7 -4 3 -4 -10 -2 -18 4 -21 2 -12 -9 8 -10 6 -13
-12 -11 -15 0 -24 7 -24 18 0 9 4 14 8 12 4 -3 8 -1 8 3 0 5 9 9 19 9 11 0 18
-3 15 -7z m80 -39 c-6 -6 -10 -3 -10 10 0 13 4 16 10 10 7 -7 7 -13 0 -20z
m-189 -18 l-20 -5 20 -8 c19 -7 19 -8 -2 -8 -23 -1 -30 9 -16 22 3 4 13 6 22
6 11 -1 9 -3 -4 -7z m100 -2 c8 -13 -15 -13 -35 0 -12 8 -11 10 7 10 12 0 25
-4 28 -10z m69 -74 c-6 -16 -31 -17 -31 0 0 7 4 11 9 8 4 -3 8 0 8 6 0 6 4 9
10 5 5 -3 7 -11 4 -19z"/>
<path d="M4110 6965 c0 -8 4 -15 10 -15 5 0 7 7 4 15 -4 8 -8 15 -10 15 -2 0
-4 -7 -4 -15z"/>
<path d="M6380 6900 c-6 -11 -8 -20 -6 -20 3 0 10 9 16 20 6 11 8 20 6 20 -3
0 -10 -9 -16 -20z"/>
<path d="M4130 6880 c0 -5 5 -10 11 -10 5 0 7 5 4 10 -3 6 -8 10 -11 10 -2 0
-4 -4 -4 -10z"/>
<path d="M4103 6855 c0 -10 6 -14 14 -10 8 3 20 5 26 6 7 0 3 4 -8 9 -29 12
-32 12 -32 -5z"/>
<path d="M6382 6851 c13 -22 28 -28 28 -11 0 5 -9 14 -20 20 -19 10 -20 10 -8
-9z"/>
<path d="M4157 6845 c-4 -8 -3 -16 1 -19 4 -3 9 4 9 15 2 23 -3 25 -10 4z"/>
<path d="M8845 6729 c-4 -6 -5 -12 -2 -15 2 -3 7 2 10 11 7 17 1 20 -8 4z"/>
<path d="M4330 6636 c0 -2 7 -9 15 -16 9 -7 15 -8 15 -2 0 5 -7 12 -15 16 -8
3 -15 4 -15 2z"/>
<path d="M4373 6620 c1 -6 -9 -16 -23 -23 -30 -15 -36 -54 -9 -62 11 -4 19
-11 19 -16 0 -5 5 -9 10 -9 21 0 9 27 -16 39 -25 11 -26 13 -8 25 15 11 22 11
39 1 31 -20 65 -28 65 -16 0 6 -7 11 -15 11 -9 0 -18 7 -21 15 -4 8 -10 15
-16 15 -5 0 -6 -4 -3 -10 4 -6 -1 -7 -11 -3 -16 6 -16 7 0 18 20 15 21 25 1
25 -8 0 -14 -5 -12 -10z"/>
<path d="M8740 6600 c0 -5 5 -10 11 -10 5 0 7 5 4 10 -3 6 -8 10 -11 10 -2 0
-4 -4 -4 -10z"/>
<path d="M3883 6587 c-27 -14 -45 -51 -36 -74 10 -27 26 -40 42 -35 8 3 11 0
8 -5 -4 -6 4 -9 18 -7 17 1 25 -3 25 -13 0 -11 3 -13 13 -5 9 8 17 8 27 0 13
-8 13 -9 -1 -5 -9 3 -16 -1 -16 -8 0 -7 6 -11 14 -8 7 3 13 1 13 -4 0 -13 42
-14 58 0 12 9 14 8 10 -8 -2 -11 -10 -19 -17 -17 -7 1 -10 -2 -6 -8 9 -15 31
-12 46 7 8 9 9 14 2 10 -7 -5 -10 -1 -9 10 2 10 -3 31 -9 48 -7 16 -11 35 -8
41 2 6 -5 14 -17 17 -11 3 -18 1 -14 -4 3 -5 0 -9 -5 -9 -6 0 -11 5 -11 11 0
8 -5 8 -15 -1 -10 -8 -15 -9 -15 -2 0 6 8 16 18 22 15 10 14 11 -5 7 -15 -3
-23 0 -23 8 0 15 -28 29 -54 26 -11 -2 -16 2 -12 8 4 6 6 10 4 10 -2 -1 -13
-6 -25 -12z m84 -103 c-3 -3 -12 -4 -19 -1 -8 3 -5 6 6 6 11 1 17 -2 13 -5z"/>
<path d="M4138 6553 c6 -2 12 -11 12 -19 0 -9 5 -12 10 -9 13 8 -6 35 -24 34
-7 0 -6 -2 2 -6z"/>
<path d="M4380 6545 c7 -8 9 -22 6 -31 -9 -23 3 -37 20 -23 12 10 12 14 2 21
-8 5 -2 7 16 4 30 -5 48 -16 27 -16 -7 0 -9 -5 -5 -11 4 -7 10 -7 16 -1 12 12
-9 55 -23 47 -13 -9 -50 5 -44 16 4 5 -1 9 -11 9 -13 0 -14 -3 -4 -15z"/>
<path d="M6160 6550 c-9 -6 -10 -10 -3 -10 6 0 15 5 18 10 8 12 4 12 -15 0z"/>
<path d="M8732 6543 c-6 -2 -9 -9 -6 -14 7 -11 -14 -39 -28 -39 -6 0 -8 6 -5
14 3 8 -2 16 -14 19 -32 9 -29 -7 9 -43 20 -19 31 -28 24 -19 -10 14 -10 18 1
22 8 3 19 19 25 36 6 17 10 31 9 30 -1 0 -8 -3 -15 -6z"/>
<path d="M4114 6518 c-5 -7 -3 -8 7 -3 12 8 12 6 0 -8 -7 -9 -18 -14 -24 -10
-6 3 -7 1 -3 -5 3 -6 0 -14 -7 -19 -12 -7 -12 -13 0 -41 7 -18 21 -36 31 -39
9 -4 28 -18 41 -32 19 -22 22 -23 16 -6 -11 32 -11 33 0 32 6 -1 9 -6 7 -11
-2 -5 3 -4 11 2 12 10 14 8 12 -11 -2 -14 1 -30 5 -37 8 -13 30 -5 30 11 0 6
-5 7 -12 3 -7 -4 -8 -3 -4 4 4 7 2 12 -5 12 -7 0 -9 3 -6 7 9 8 48 -27 42 -37
-6 -10 47 -10 60 0 17 13 44 8 38 -8 -4 -10 -8 -10 -13 -2 -5 8 -9 7 -13 -3
-3 -9 1 -17 13 -20 17 -4 35 22 31 46 -1 5 4 5 10 2 8 -5 8 -10 0 -18 -14 -14
-14 -47 -1 -47 6 0 13 7 16 15 4 9 11 15 18 14 29 -3 41 3 21 11 -18 8 -18 9
-2 9 10 1 15 6 12 11 -4 6 -11 8 -16 5 -5 -3 -6 1 -3 9 3 9 2 16 -4 16 -6 0
-13 -6 -15 -12 -5 -11 -11 25 -8 44 0 4 -12 7 -27 6 -15 -1 -34 2 -42 5 -12 6
-15 0 -16 -24 -1 -22 1 -27 7 -18 5 8 9 9 9 3 0 -7 -11 -19 -24 -27 -23 -15
-26 -15 -57 16 -19 18 -33 33 -31 34 7 8 0 34 -14 47 -13 13 -13 17 -1 21 7 3
14 12 14 20 0 8 -4 12 -9 9 -5 -3 -25 4 -44 15 -41 25 -41 24 -50 9z m89 -105
c-7 -2 -19 -2 -25 0 -7 3 -2 5 12 5 14 0 19 -2 13 -5z m170 -30 c9 -3 17 -10
17 -15 0 -5 -5 -6 -11 -2 -6 3 -14 2 -18 -4 -3 -5 -14 1 -25 16 -19 25 -19 25
0 18 10 -5 27 -11 37 -13z"/>
<path d="M4421 6496 c-7 -8 -8 -17 -3 -20 6 -3 12 3 15 14 6 24 4 25 -12 6z"/>
<path d="M8656 6453 c-6 -14 -5 -15 5 -6 7 7 10 15 7 18 -3 3 -9 -2 -12 -12z"/>
<path d="M8686 6442 c-3 -5 1 -9 9 -9 8 0 12 4 9 9 -3 4 -7 8 -9 8 -2 0 -6 -4
-9 -8z"/>
<path d="M4235 6431 c-3 -5 -1 -12 5 -16 6 -4 8 -11 4 -16 -7 -12 24 -49 41
-49 17 0 13 56 -4 72 -12 11 -13 10 -8 -4 3 -9 -1 -22 -9 -28 -10 -9 -14 -9
-14 -1 0 6 6 11 13 11 7 1 5 6 -5 14 -10 7 -15 16 -11 19 3 4 4 7 0 7 -3 0 -8
-4 -12 -9z"/>
<path d="M6183 6413 c0 -11 7 -20 14 -20 10 0 10 4 1 16 -7 9 -13 18 -15 20
-1 2 -1 -5 0 -16z"/>
<path d="M4410 6390 c0 -6 7 -10 15 -10 8 0 15 2 15 4 0 2 -7 6 -15 10 -8 3
-15 1 -15 -4z"/>
<path d="M8549 6388 c-5 -9 -4 -56 1 -52 5 6 8 54 3 54 -2 0 -4 -1 -4 -2z"/>
<path d="M6190 6356 c0 -2 7 -7 16 -10 8 -3 12 -2 9 4 -6 10 -25 14 -25 6z"/>
<path d="M3996 6320 c-14 -4 -16 -9 -8 -14 7 -4 16 -4 22 -1 6 3 7 -1 4 -9 -4
-9 -11 -13 -18 -8 -14 9 -76 10 -70 1 2 -4 -3 -10 -12 -13 -10 -4 -13 -2 -8 7
5 7 1 7 -10 -2 -13 -11 -14 -16 -4 -22 9 -6 7 -9 -7 -9 -20 0 -70 -49 -60 -58
3 -3 11 0 17 6 7 7 17 12 23 12 6 0 7 -3 0 -8 -5 -4 -17 -16 -25 -26 -13 -18
-13 -19 0 -11 8 4 4 -5 -10 -21 -14 -15 -17 -22 -7 -15 9 7 17 10 17 6 0 -4 8
-1 18 6 9 7 7 2 -5 -12 -31 -34 -29 -48 7 -55 17 -4 30 -10 30 -15 0 -5 -7 -6
-15 -3 -18 7 -20 -12 -2 -23 18 -12 39 -53 27 -53 -5 0 -10 -4 -10 -10 0 -5 7
-7 15 -4 10 4 15 0 15 -11 0 -13 3 -15 13 -6 8 6 16 8 19 6 3 -3 3 6 1 20 -3
13 -9 23 -12 20 -4 -2 -8 2 -8 10 0 11 4 12 14 4 7 -6 13 -18 13 -26 0 -8 5
-11 10 -8 6 3 10 2 10 -3 0 -13 53 -22 66 -11 6 5 15 5 19 1 5 -4 6 0 2 9 -4
11 0 16 11 15 9 0 16 5 14 12 -1 8 2 11 8 7 6 -4 9 -13 6 -20 -3 -9 6 -13 34
-11 21 0 36 4 34 8 -2 3 2 13 10 21 8 8 12 17 9 21 -4 3 -1 6 6 6 7 0 10 4 6
9 -3 5 -1 12 4 15 15 9 10 96 -6 96 -15 0 -13 21 2 33 6 5 4 12 -6 20 -9 6
-14 18 -12 25 3 6 0 12 -7 12 -6 0 -8 5 -4 12 5 7 3 8 -7 2 -24 -14 -42 -14
-29 0 13 17 -5 33 -42 38 -14 2 -32 8 -39 14 -22 17 -43 22 -63 14z m69 -150
c5 -7 11 -8 19 -1 9 7 12 3 14 -17 1 -15 4 -37 6 -48 4 -18 1 -21 -17 -17 -18
4 -19 3 -7 -6 13 -9 13 -12 1 -23 -11 -10 -12 -10 -7 0 5 9 -1 12 -21 12 -15
0 -44 1 -63 3 -19 3 -44 0 -55 -6 -18 -9 -19 -9 -6 6 7 10 10 17 6 17 -4 0 -2
6 4 13 6 8 8 17 4 20 -3 4 0 13 7 22 7 8 10 22 6 30 -3 9 -2 13 4 10 6 -3 10
-2 10 4 0 25 77 10 95 -19z m70 20 c3 -6 -1 -7 -9 -4 -18 7 -21 14 -7 14 6 0
13 -4 16 -10z m-242 -93 c3 -8 -1 -14 -9 -14 -15 0 -18 9 -7 20 9 9 10 9 16
-6z m312 -27 c-3 -5 -12 -10 -18 -10 -7 0 -6 4 3 10 19 12 23 12 15 0z m-152
-66 c-4 -12 -8 -13 -14 -3 -9 15 -2 32 11 24 5 -3 6 -13 3 -21z m81 4 c-5 -8
0 -9 14 -6 12 4 22 3 22 -2 0 -4 -11 -10 -25 -12 -24 -5 -34 10 -18 25 10 11
15 8 7 -5z"/>
<path d="M3946 6308 c3 -5 10 -6 15 -3 13 9 11 12 -6 12 -8 0 -12 -4 -9 -9z"/>
<path d="M8267 6215 c-4 -8 -15 -12 -28 -10 -13 3 -28 0 -36 -6 -7 -7 -13 -8
-13 -4 0 4 -6 2 -14 -4 -8 -7 -12 -20 -9 -31 4 -17 8 -18 27 -8 11 7 25 11 29
10 5 -1 6 2 2 8 -5 8 -11 8 -20 0 -10 -8 -15 -8 -21 1 -4 7 -3 9 4 5 6 -3 13
-2 17 4 4 6 10 8 15 5 5 -3 12 0 16 6 4 8 9 7 15 -2 7 -11 9 -11 9 1 0 12 2
12 9 1 6 -9 9 -5 9 13 0 29 -3 32 -11 11z"/>
<path d="M8301 6194 c0 -11 3 -14 6 -6 3 7 2 16 -1 19 -3 4 -6 -2 -5 -13z"/>
<path d="M7973 6140 c-10 -14 -9 -19 2 -24 8 -3 15 -12 15 -20 0 -10 6 -13 18
-9 15 6 16 5 2 -13 -14 -18 -14 -18 3 -5 17 14 17 16 -9 36 -21 17 -24 24 -14
30 8 5 11 4 6 -3 -3 -6 -2 -13 3 -16 18 -12 20 11 3 27 -16 15 -19 15 -29 -3z"/>
<path d="M7814 6134 c-18 -14 -18 -15 4 -4 24 12 30 2 10 -18 -7 -7 -10 -12
-7 -13 2 0 11 -2 19 -4 20 -3 24 29 6 44 -9 8 -18 6 -32 -5z"/>
<path d="M6400 6128 c0 -2 9 -11 20 -21 11 -9 20 -13 20 -7 0 5 -9 14 -20 20
-11 6 -20 9 -20 8z"/>
<path d="M8070 6100 c-12 -7 -10 -9 7 -7 12 0 19 5 17 9 -6 10 -6 10 -24 -2z"/>
<path d="M8120 6080 c0 -5 5 -10 11 -10 5 0 7 5 4 10 -3 6 -8 10 -11 10 -2 0
-4 -4 -4 -10z"/>
<path d="M7385 6060 c-3 -5 -1 -10 4 -10 6 0 11 5 11 10 0 6 -2 10 -4 10 -3 0
-8 -4 -11 -10z"/>
<path d="M7755 6060 c-3 -6 1 -7 9 -4 18 7 21 14 7 14 -6 0 -13 -4 -16 -10z"/>
<path d="M6675 6050 c-16 -7 -17 -9 -3 -9 9 -1 20 4 23 9 7 11 7 11 -20 0z"/>
<path d="M6705 6030 c-3 -6 1 -7 9 -4 18 7 21 14 7 14 -6 0 -13 -4 -16 -10z"/>
<path d="M7210 6031 c0 -5 6 -12 13 -14 9 -4 9 -6 0 -6 -7 -1 -10 -7 -7 -15 6
-15 -10 -29 -40 -33 -34 -6 -31 -13 5 -10 24 2 37 9 44 25 5 12 15 22 22 22
18 0 16 10 -4 26 -21 16 -33 18 -33 5z"/>
<path d="M3866 5993 c-6 -14 -5 -15 5 -6 7 7 10 15 7 18 -3 3 -9 -2 -12 -12z"/>
<path d="M7010 6000 c0 -5 5 -10 11 -10 5 0 7 5 4 10 -3 6 -8 10 -11 10 -2 0
-4 -4 -4 -10z"/>
<path d="M7305 6000 c3 -5 8 -10 11 -10 2 0 4 5 4 10 0 6 -5 10 -11 10 -5 0
-7 -4 -4 -10z"/>
<path d="M7150 5980 c0 -5 5 -10 11 -10 5 0 7 5 4 10 -3 6 -8 10 -11 10 -2 0
-4 -4 -4 -10z"/>
</g>
</svg>
